<?xml version="1.0" encoding="utf-8"?>
<!-- Generator: Adobe Illustrator 27.5.0, SVG Export Plug-In . SVG Version: 6.00 Build 0)  -->
<svg version="1.1" id="Layer" xmlns="http://www.w3.org/2000/svg" xmlns:xlink="http://www.w3.org/1999/xlink" x="0px" y="0px"
	 viewBox="0 0 490 460" style="enable-background:new 0 0 490 460;" xml:space="preserve">
<rect x="0" style="fill:#FFFFFF;" width="490" height="460"/>
<g>
	<g>
		<path style="fill:#E3ECFF;" d="M63.822,265.711l-2.489-1.469c-0.652-0.377-0.571-1.035,0.183-1.47l21.632-12.611
			c0.753-0.435,1.893-0.482,2.545-0.105l2.489,1.469c0.652,0.377,0.571,1.035-0.183,1.469l-21.632,12.611
			C65.614,266.04,64.474,266.087,63.822,265.711z"/>
		<g>
			<g>
				<g style="enable-background:new    ;">
					<g>
						<path style="fill:#FF5740;" d="M88.344,178.777l-2.552-1.48c-0.503-0.292-1.199-0.25-1.969,0.194l2.552,1.48
							C87.145,178.527,87.841,178.485,88.344,178.777z"/>
					</g>
					<g>
						<path style="fill:#ED341A;" d="M58.044,220.5l2.552,1.48c-0.497-0.289-0.805-0.902-0.808-1.772l-2.552-1.48
							C57.239,219.598,57.548,220.212,58.044,220.5z"/>
					</g>
					<g>
						<polygon style="fill:#ED341A;" points="59.725,197.62 57.173,196.14 57.237,218.728 59.789,220.208 						"/>
					</g>
					<g>
						<polygon style="fill:#FF5740;" points="86.375,178.971 83.823,177.492 59.929,191.365 62.481,192.845 						"/>
					</g>
					<g>
						<path style="fill:#ED341A;" d="M62.481,192.845l-2.552-1.48c-1.525,0.88-2.762,3.017-2.757,4.775l2.552,1.48
							C59.72,195.862,60.956,193.726,62.481,192.845z"/>
					</g>
					<g>
						<g>
							<path style="fill:#DE2910;" d="M62.481,192.845c-1.525,0.88-2.762,3.017-2.757,4.774l0.064,22.588
								c0.005,1.752,1.25,2.461,2.775,1.581l23.894-13.874c1.53-0.883,2.762-3.022,2.757-4.775l-0.064-22.588
								c-0.005-1.758-1.245-2.464-2.775-1.581L62.481,192.845z"/>
						</g>
					</g>
					<g>
						<path style="fill:#F2F2F2;" d="M62.697,201.546l22.676-13.092c0.393-0.227,0.711-0.835,0.711-1.358v-1.305
							c0-0.523-0.318-0.764-0.711-0.537l-22.676,13.092c-0.393,0.227-0.711,0.835-0.711,1.358v1.305
							C61.986,201.532,62.304,201.773,62.697,201.546z"/>
						<path style="fill:#F2F2F2;" d="M62.697,206.508l22.676-13.092c0.393-0.227,0.711-0.835,0.711-1.358v-1.305
							c0-0.523-0.318-0.764-0.711-0.537l-22.676,13.092c-0.393,0.227-0.711,0.835-0.711,1.358v1.305
							C61.986,206.494,62.304,206.734,62.697,206.508z"/>
						<path style="fill:#F2F2F2;" d="M62.697,211.47l22.676-13.092c0.393-0.227,0.711-0.835,0.711-1.358v-1.305
							c0-0.523-0.318-0.764-0.711-0.537l-22.676,13.092c-0.393,0.227-0.711,0.835-0.711,1.358v1.305
							C61.986,211.456,62.304,211.696,62.697,211.47z"/>
						<path style="fill:#F2F2F2;" d="M62.697,216.431l22.676-13.092c0.393-0.227,0.711-0.835,0.711-1.358v-1.305
							c0-0.523-0.318-0.764-0.711-0.537l-22.676,13.092c-0.393,0.227-0.711,0.835-0.711,1.358v1.305
							C61.986,216.417,62.304,216.658,62.697,216.431z"/>
					</g>
				</g>
			</g>
		</g>
	</g>
	<g>
		<path style="fill:#E3ECFF;" d="M97.917,245.708l-2.439-1.408c-1.115-0.644-0.975-1.768,0.312-2.511l43.307-25.157
			c1.287-0.743,3.234-0.824,4.349-0.18l2.439,1.408c1.115,0.644,0.975,1.768-0.312,2.511l-43.307,25.157
			C100.979,246.27,99.032,246.351,97.917,245.708z"/>
		<g>
			<g>
				<g style="enable-background:new    ;">
					<path style="fill:#EFF0F2;" d="M145.974,78.905c-0.708-0.411-1.689-0.352-2.773,0.274l-48.748,28.145
						c-2.148,1.24-3.89,4.249-3.883,6.726l0.09,31.819c0.004,1.226,0.438,2.09,1.138,2.496l3.595,2.085
						c-0.7-0.407-1.134-1.27-1.138-2.496l-0.09-31.819c-0.007-2.476,1.735-5.486,3.883-6.726l48.748-28.145
						c1.084-0.626,2.065-0.685,2.773-0.274L145.974,78.905z"/>
					<g>
						<path style="fill:#CED3DE;" d="M98.047,109.408c-2.148,1.24-3.89,4.249-3.883,6.726l0.09,31.819
							c0.007,2.468,1.761,3.467,3.908,2.227l30.26-17.471l17.292,9.887l-0.039-19.848l1.235-0.713
							c2.155-1.244,3.89-4.258,3.883-6.726l-0.09-31.819c-0.007-2.476-1.754-3.471-3.908-2.227L98.047,109.408z"/>
					</g>
				</g>
			</g>
			<g>
				<g>
					<path style="fill:#4D4D80;" d="M128.928,119.107c0,1.485,1.049,2.083,2.343,1.336c1.294-0.747,2.343-2.556,2.343-4.041
						c0-1.485-1.049-2.083-2.343-1.336C129.977,115.813,128.928,117.622,128.928,119.107z"/>
					<path style="fill:#4D4D80;" d="M122.336,122.913c0,1.485,1.049,2.083,2.343,1.336c1.294-0.747,2.343-2.556,2.343-4.041
						c0-1.485-1.049-2.083-2.343-1.336C123.385,119.618,122.336,121.428,122.336,122.913z"/>
					<path style="fill:#4D4D80;" d="M115.744,126.718c0,1.485,1.049,2.083,2.343,1.336c1.294-0.747,2.343-2.556,2.343-4.041
						s-1.049-2.083-2.343-1.336C116.793,123.424,115.744,125.234,115.744,126.718z"/>
					<path style="fill:#4D4D80;" d="M109.152,130.524c0,1.485,1.049,2.083,2.343,1.336c1.294-0.747,2.343-2.556,2.343-4.041
						s-1.049-2.083-2.343-1.336C110.201,127.23,109.152,129.04,109.152,130.524z"/>
				</g>
			</g>
		</g>
	</g>
	<g>
		<path style="fill:#E3ECFF;" d="M65.881,340.369l-36.169-20.882c-1.437-0.83-1.257-2.279,0.403-3.237l47.912-27.662
			c1.659-0.958,4.169-1.062,5.606-0.232l36.169,20.882c1.437,0.83,1.257,2.279-0.403,3.237l-47.912,27.662
			C69.828,341.095,67.318,341.199,65.881,340.369z"/>
		<g>
			<g style="enable-background:new    ;">
				<g>
					<polygon style="fill:#30306B;" points="66.745,279.481 66.68,302.116 65.568,301.474 65.633,278.839 					"/>
				</g>
				<g>
					<path style="fill:#4D4D80;" d="M94.078,280.923l-0.064,22.635c-7.559-4.364-12.732-4.401-27.334-1.442l0.064-22.635
						C81.347,276.522,86.52,276.559,94.078,280.923z"/>
				</g>
				<g>
					<polygon style="fill:#4D4D80;" points="96.657,282.412 96.593,305.047 94.014,303.558 94.078,280.923 					"/>
				</g>
				<g>
					<polygon style="fill:#30306B;" points="111.282,289.279 111.218,311.914 109.857,312.704 109.921,290.07 					"/>
				</g>
				<g>
					<polygon style="fill:#30306B;" points="109.921,290.07 109.857,312.704 50.604,325.667 50.668,303.032 					"/>
				</g>
				<g>
					<polygon style="fill:#595994;" points="67.842,314.598 67.778,337.233 35.738,318.735 35.802,296.1 					"/>
				</g>
				<g>
					<polygon style="fill:#4D4D80;" points="83.747,306.214 83.683,328.849 67.778,337.233 67.842,314.598 					"/>
				</g>
				<g>
					<path style="fill:#6B6CB3;" d="M82.619,305.563l1.128,0.651l-15.905,8.384L35.802,296.1l1.169-0.679l59.686-13.009
						l-2.579-1.489c-7.559-4.364-12.732-4.401-27.334-1.442l-1.112-0.642l14.673-7.444l30.977,17.884l-1.361,0.791l-59.253,12.962
						l2.127,1.228C60.129,308.494,71.105,309.285,82.619,305.563z"/>
				</g>
			</g>
		</g>
	</g>
	<g>
		<path style="fill:#E3ECFF;" d="M306.32,383.026l-134.576-77.499c-2.125-1.227-1.859-3.37,0.595-4.786l4.405-2.543
			c2.454-1.417,6.165-1.571,8.29-0.344l134.576,77.499c2.125,1.227,1.858,3.37-0.595,4.786l-4.405,2.543
			C312.157,384.099,308.445,384.253,306.32,383.026z"/>
		<g>
			<g>
				<g style="enable-background:new    ;">
					<g>
						<path style="fill:#30306B;" d="M318.846,339.133l-7.306,4.246c1.353-0.786,2.193-2.459,2.199-4.835l7.306-4.246
							C321.038,336.674,320.199,338.347,318.846,339.133z"/>
					</g>
					<g>
						<path style="fill:#6B6CB3;" d="M171.281,43.244l7.306-4.246c1.369-0.796,3.266-0.683,5.361,0.527l-7.306,4.246
							C174.547,42.561,172.65,42.448,171.281,43.244z"/>
					</g>
					<g>
						<polygon style="fill:#30306B;" points="314.324,131.931 321.63,127.685 321.045,334.298 313.738,338.544 						"/>
					</g>
					<g>
						<polygon style="fill:#6B6CB3;" points="176.642,43.771 183.948,39.525 314.116,114.678 306.81,118.924 						"/>
					</g>
					<g>
						<path style="fill:#6B6CB3;" d="M306.81,118.924l7.306-4.246c4.163,2.404,7.528,8.224,7.514,13.007l-7.306,4.246
							C314.338,127.147,310.973,121.327,306.81,118.924z"/>
					</g>
					<g>
						<path style="fill:#4D4D80;" d="M306.81,118.924c4.163,2.404,7.528,8.224,7.514,13.007l-0.586,206.613
							c-0.013,4.784-3.4,6.714-7.563,4.31l-130.168-75.153c-4.163-2.404-7.521-8.227-7.507-13.011l0.586-206.613
							c0.014-4.784,3.393-6.71,7.557-4.306L306.81,118.924z"/>
					</g>
					<g>
						<path style="fill:#EFF0F2;" d="M306.107,119.723c4.118,2.378,7.447,8.135,7.433,12.868l-0.579,204.393
							c-0.013,4.732-3.364,6.642-7.482,4.264L176.71,266.902c-4.118-2.378-7.44-8.139-7.427-12.871l0.579-204.393
							c0.013-4.732,3.357-6.638,7.475-4.26L306.107,119.723z"/>
					</g>
					<g>
						<g>
							<path style="fill:#75C7EB;" d="M298.388,136.491c3.627,2.094,6.558,7.165,6.546,11.332l-0.51,164.913
								c-0.012,4.168-2.962,5.849-6.589,3.755L184.43,251.016c-3.627-2.094-6.552-7.168-6.541-11.335l0.51-164.913
								c0.012-4.168,2.956-5.846,6.583-3.752L298.388,136.491z"/>
						</g>
					</g>
					<g>
						<g>
							<path style="fill:#FFFFFF;" d="M187.413,147.074v-43.399c0-3.515,2.137-5.131,4.774-3.609l39.367,22.729
								c2.636,1.522,4.773,5.605,4.773,9.121v43.4c0,3.515-2.137,5.131-4.774,3.609l-39.367-22.729
								C189.551,154.673,187.413,150.589,187.413,147.074z"/>
							<path style="fill:#ED341A;" d="M231.399,176.363l-39.056-22.549c-1.533-0.885-2.776-3.26-2.776-5.304v-43.784
								c0-2.044,1.243-2.984,2.776-2.099l39.056,22.549c1.533,0.885,2.776,3.26,2.776,5.304v43.785
								C234.175,176.309,232.932,177.249,231.399,176.363z"/>
							<polygon style="fill:#FFEA00;" points="200.243,125.396 195.949,125.507 196.769,120.495 193.296,114.604 198.096,116.575 
								200.243,112.823 202.39,119.054 207.191,122.626 203.717,124.506 204.537,130.465 							"/>
							<polygon style="fill:#FFEA00;" points="210.942,120.15 209.709,120.182 209.944,118.742 208.947,117.051 210.325,117.617 
								210.942,116.539 211.558,118.328 212.937,119.354 211.939,119.894 212.175,121.605 							"/>
							<polygon style="fill:#FFEA00;" points="210.942,138.215 209.709,138.247 209.944,136.808 208.947,135.116 210.325,135.682 
								210.942,134.605 211.558,136.394 212.937,137.419 211.939,137.959 212.175,139.671 							"/>
							<polygon style="fill:#FFEA00;" points="216.19,135.611 214.957,135.643 215.193,134.204 214.195,132.512 215.574,133.078 
								216.19,132.001 216.807,133.79 218.185,134.816 217.188,135.355 217.423,137.067 							"/>
							<polygon style="fill:#FFEA00;" points="216.19,128.585 214.957,128.617 215.193,127.177 214.195,125.486 215.574,126.052 
								216.19,124.974 216.807,126.763 218.185,127.789 217.188,128.329 217.423,130.04 							"/>
						</g>
						<g>
							<path style="fill:#FFFFFF;" d="M187.413,220.677v-43.399c0-3.515,2.137-5.131,4.774-3.609l39.367,22.729
								c2.636,1.522,4.773,5.605,4.773,9.12v43.4c0,3.515-2.137,5.131-4.774,3.609l-39.367-22.729
								C189.551,228.276,187.413,224.192,187.413,220.677z"/>
							<path style="fill:#4D4D80;" d="M231.399,249.966l-39.056-22.549c-1.533-0.885-2.776-3.26-2.776-5.304v-43.785
								c0-2.044,1.243-2.984,2.776-2.099l39.056,22.549c1.533,0.885,2.776,3.26,2.776,5.304v43.785
								C234.175,249.912,232.932,250.851,231.399,249.966z"/>
							<path style="fill:#F2F2F2;" d="M234.176,203.817v14.071l-44.609-25.755v-14.071c0-1.896,1.34-2.66,2.993-1.706l38.788,22.34
								C233.001,199.65,234.176,201.921,234.176,203.817z"/>
							<path style="fill:#ED341A;" d="M234.176,235.721v12.416c0,1.896-1.34,2.66-2.993,1.706l-38.623-22.299
								c-1.653-0.954-2.993-3.266-2.993-5.162v-12.416L234.176,235.721z"/>
						</g>
						<g>
							<path style="fill:#FFFFFF;" d="M246.355,181.104v-43.399c0-3.515,2.137-5.131,4.774-3.609l39.368,22.729
								c2.636,1.522,4.773,5.605,4.773,9.12v43.4c0,3.515-2.137,5.131-4.774,3.609l-39.367-22.729
								C248.492,188.703,246.355,184.619,246.355,181.104z"/>
							<path style="fill:#4D4D80;" d="M290.34,210.393l-39.056-22.549c-1.533-0.885-2.776-3.26-2.776-5.304v-43.785
								c0-2.044,1.243-2.984,2.776-2.099l39.056,22.549c1.533,0.885,2.776,3.26,2.776,5.304v43.785
								C293.116,210.339,291.873,211.279,290.34,210.393z"/>
							<path style="fill:#F2F2F2;" d="M293.117,164.244v5.096l-16.031,9.14l-4.123-7.112l18.83-10.736l0.005,0.003
								C292.595,161.712,293.117,163.058,293.117,164.244z"/>
							<path style="fill:#F2F2F2;" d="M271.504,170.624l-4.123,2.351l-18.873-32.553v-1.933c0-1.896,1.34-2.66,2.993-1.706
								l0.576,0.332L271.504,170.624z"/>
							<path style="fill:#F2F2F2;" d="M293.117,204.363v4.2c0,1.421-0.754,2.209-1.83,2.106l-14.959-25.803l4.124-2.351
								L293.117,204.363z"/>
							<path style="fill:#ED341A;" d="M293.117,164.244v0.772l-17.43,9.944l-1.669,0.945l-1.636,0.933l-1.663,0.954l-0.948,0.534
								l-1.642-2.832l-0.021-0.037l0.947-0.534l1.663-0.954l1.636-0.933l0.732-0.417l0.937-0.528l18.378-10.484
								C292.848,162.464,293.117,163.391,293.117,164.244z"/>
							<path style="fill:#ED341A;" d="M275.052,181.449l-1.663,0.948l-2.67-4.605l-1.642-2.832l-0.022-0.037l-20.547-35.44v-0.995
								c0-0.797,0.232-1.386,0.63-1.737l19.933,34.382l1.647,2.835l1.663,2.869L275.052,181.449z"/>
							<path style="fill:#ED341A;" d="M293.117,205.024v3.54c0,0.093-0.005,0.176-0.011,0.266l-19.088-32.924l-2.374-4.095
								l0.732-0.417l0.931-0.537L293.117,205.024z"/>
							<path style="fill:#F2F2F2;" d="M266.536,177.583l-16.321,9.305c-1.012-1.134-1.706-2.715-1.706-4.08v-4.41l13.904-7.927
								L266.536,177.583z"/>
							<path style="fill:#ED341A;" d="M273.108,172.656l-0.732,0.417l-1.636,0.933l-1.663,0.954l-0.947,0.534l-18.544,10.573
								c-0.651-1-1.066-2.166-1.077-3.21l18.9-10.776l1.663-0.948l2.374-1.354l0.931,1.613l0.711,1.226L273.108,172.656z"/>
							<polygon style="fill:#F2F2F2;" points="293.117,178.957 293.117,193.85 277.641,184.915 277.641,203.063 264.663,195.57 
								264.663,177.421 248.508,168.095 248.508,153.202 264.663,162.529 264.663,144.381 277.641,151.874 277.641,170.022 							
								"/>
							<polygon style="fill:#ED341A;" points="293.117,182.046 293.117,190.761 274.949,180.272 274.949,201.509 267.354,197.123 
								267.354,175.887 248.508,165.006 248.508,156.29 267.354,167.171 267.354,145.935 274.949,150.32 274.949,171.557 							"/>
						</g>
						<g>
							<path style="fill:#FFFFFF;" d="M246.355,254.708v-43.399c0-3.515,2.137-5.131,4.774-3.609l39.368,22.729
								c2.636,1.522,4.773,5.605,4.773,9.12v43.4c0,3.515-2.137,5.131-4.774,3.609l-39.367-22.728
								C248.492,262.307,246.355,258.223,246.355,254.708z"/>
							<path style="fill:#FFAA00;" d="M290.34,283.997l-39.056-22.549c-1.533-0.885-2.776-3.26-2.776-5.304v-43.784
								c0-2.044,1.243-2.984,2.776-2.099l39.056,22.549c1.533,0.885,2.776,3.26,2.776,5.304v43.785
								C293.116,283.943,291.873,284.882,290.34,283.997z"/>
							<path style="fill:#ED341A;" d="M293.117,237.847v7.777l-44.609-25.755v-7.777c0-1.896,1.34-2.66,2.993-1.706l38.623,22.299
								C291.777,233.638,293.117,235.95,293.117,237.847z"/>
							<path style="fill:#ED341A;" d="M293.117,275.137v7.029c0,1.896-1.34,2.66-2.993,1.706l-38.623-22.299
								c-1.653-0.954-2.993-3.266-2.993-5.162v-7.029L293.117,275.137z"/>
						</g>
						<g>
							<path d="M264.938,201.096v0.326l-2.237-1.292v2.406l2.237,1.292v0.326l-2.237-1.292v2.406l2.237,1.292v0.326l-2.521-1.456
								v-5.791L264.938,201.096z"/>
							<path d="M266.092,204.79v2.763l-0.286-0.164v-3.555l0.286,0.164v0.23c0.258-0.145,0.558-0.12,0.901,0.077
								c0.366,0.211,0.661,0.514,0.891,0.91c0.23,0.396,0.347,0.795,0.354,1.199v2.378l-0.284-0.164v-2.348
								c0-0.303-0.094-0.615-0.286-0.938c-0.19-0.324-0.415-0.561-0.676-0.711c-0.263-0.15-0.486-0.173-0.673-0.075
								C266.214,204.614,266.136,204.691,266.092,204.79z"/>
							<path d="M272.234,210.393c-0.052,0.047-0.11,0.089-0.169,0.127c-0.34,0.192-0.748,0.152-1.229-0.124
								c-0.476-0.277-0.884-0.706-1.224-1.29c-0.338-0.586-0.507-1.151-0.507-1.698c0-0.551,0.169-0.922,0.507-1.114
								c0.34-0.19,0.748-0.148,1.224,0.127c0.481,0.277,0.889,0.706,1.229,1.288c0.063,0.115,0.122,0.23,0.178,0.345v-0.502
								l0.284,0.164v2.76c0,0.535-0.164,0.896-0.495,1.084c-0.34,0.192-0.746,0.15-1.224-0.124
								c-0.478-0.277-0.889-0.708-1.227-1.292c-0.07-0.12-0.131-0.237-0.185-0.356l0.3,0.052c0.031,0.061,0.063,0.122,0.099,0.183
								c0.281,0.483,0.617,0.84,1.013,1.067c0.392,0.228,0.729,0.26,1.011,0.101C272.073,211.042,272.211,210.777,272.234,210.393z
								 M272.241,208.878c-0.056-0.345-0.185-0.692-0.392-1.048c-0.281-0.483-0.619-0.837-1.013-1.065
								c-0.394-0.23-0.732-0.263-1.013-0.103c-0.279,0.157-0.418,0.464-0.418,0.919c0,0.453,0.138,0.919,0.418,1.402
								c0.281,0.483,0.619,0.837,1.013,1.067c0.394,0.227,0.732,0.26,1.013,0.101c0.204-0.115,0.335-0.31,0.392-0.586V208.878z"/>
							<path d="M273.773,206.197v5.791l-0.284-0.164v-5.791L273.773,206.197z"/>
							<path d="M275.121,208.045c0.056,0.096,0.084,0.188,0.084,0.279c0,0.091-0.028,0.152-0.084,0.181
								c-0.056,0.033-0.122,0.024-0.199-0.019c-0.077-0.047-0.143-0.115-0.202-0.211c-0.054-0.094-0.082-0.188-0.082-0.279
								c0-0.091,0.028-0.15,0.082-0.181c0.059-0.03,0.124-0.023,0.202,0.021C275,207.881,275.065,207.951,275.121,208.045z
								 M275.065,209.178v3.556l-0.286-0.164v-3.556L275.065,209.178z"/>
							<path d="M276.925,211.98c-0.242-0.291-0.408-0.514-0.502-0.675c-0.143-0.249-0.218-0.492-0.218-0.725
								c0-0.237,0.075-0.396,0.218-0.481c0.145-0.085,0.321-0.066,0.523,0.052c0.209,0.117,0.378,0.293,0.514,0.525
								c0.129,0.227,0.195,0.436,0.195,0.631v0.016l-0.246-0.028c-0.023-0.197-0.07-0.361-0.15-0.5
								c-0.08-0.138-0.183-0.242-0.312-0.317c-0.124-0.073-0.232-0.084-0.324-0.033c-0.089,0.049-0.136,0.148-0.136,0.296
								c0,0.145,0.047,0.296,0.136,0.45c0.052,0.092,0.164,0.249,0.335,0.469c0.267,0.324,0.457,0.584,0.572,0.779
								c0.178,0.312,0.267,0.61,0.267,0.898c0,0.293-0.089,0.493-0.267,0.596c-0.178,0.103-0.394,0.082-0.65-0.066
								c-0.253-0.148-0.469-0.375-0.647-0.685c-0.181-0.307-0.27-0.586-0.27-0.833l0.281,0.08c0,0.211,0.063,0.424,0.185,0.638
								c0.127,0.216,0.277,0.375,0.45,0.474c0.174,0.101,0.324,0.117,0.45,0.047c0.124-0.07,0.188-0.209,0.188-0.413
								c0-0.202-0.061-0.408-0.185-0.622C277.265,212.438,277.129,212.248,276.925,211.98z"/>
							<path d="M278.602,208.985l0.284,0.164v2.42c0.242-0.127,0.53-0.094,0.865,0.101c0.364,0.211,0.664,0.516,0.894,0.91
								c0.227,0.394,0.345,0.793,0.352,1.198v2.378l-0.284-0.164v-2.348c0-0.303-0.096-0.614-0.286-0.938s-0.415-0.561-0.676-0.711
								c-0.26-0.15-0.485-0.176-0.675-0.075c-0.085,0.047-0.148,0.11-0.19,0.19v2.829l-0.284-0.164V208.985z"/>
						</g>
						<g>
							<g>
								<path d="M210.182,169.805l-2.576-1.487v-0.839l0.355,0.205v-0.299l-0.355-0.205l-0.445-0.257v0.299v0.839l-2.576-1.487
									v-0.014l-0.445-0.257v0.014v0.511v2.321v0.511v0.762l0.445,0.257v-0.762l2.576,1.487v2.964l0.445,0.257v-2.964l2.576,1.487
									v0.762l0.445,0.257v-0.762v-0.511v-2.321v-0.511v-0.014l-0.445-0.257V169.805z M204.585,169.406v-2.321l2.576,1.487v2.321
									L204.585,169.406z M210.182,172.637l-2.576-1.487v-2.321l2.576,1.487V172.637z"/>
								<path d="M219.602,181.482c-1.379-1.29-2.654-2.883-3.729-4.616c0.831-0.473,1.529-1.171,2.041-2.085l0.9,0.519v-0.511
									l-2.91-1.68v-0.839l0.355,0.205v-0.299l-0.355-0.205l-0.446-0.257v0.299v0.839l-3.133-1.809v0.511l0.741,0.428
									c0.513,1.506,1.21,3.01,2.041,4.443c-1.076,0.49-2.35,0.612-3.729,0.309l0.159,0.678c1.463,0.321,2.814,0.187,3.952-0.339
									c1.138,1.84,2.489,3.535,3.952,4.903L219.602,181.482z M213.671,172.331l3.641,2.102c-0.475,0.772-1.091,1.372-1.82,1.786
									C214.762,174.963,214.145,173.651,213.671,172.331z"/>
							</g>
						</g>
						<g>
							<path d="M263.322,275.985v0.324l-2.237-1.29v2.406l2.237,1.292v0.326l-2.237-1.292v2.406l2.237,1.292v0.326l-2.521-1.456
								v-5.791L263.322,275.985z"/>
							<path d="M265.041,280.939c-0.242-0.289-0.408-0.511-0.502-0.673c-0.145-0.249-0.218-0.49-0.218-0.725
								c0-0.237,0.073-0.396,0.218-0.481c0.145-0.085,0.321-0.068,0.523,0.049c0.209,0.122,0.378,0.296,0.514,0.528
								c0.129,0.227,0.195,0.439,0.195,0.631v0.019l-0.246-0.03c-0.023-0.197-0.07-0.361-0.15-0.5
								c-0.08-0.136-0.183-0.244-0.312-0.317c-0.124-0.073-0.232-0.084-0.324-0.035c-0.089,0.052-0.136,0.15-0.136,0.298
								c0,0.143,0.047,0.295,0.136,0.45c0.052,0.091,0.164,0.246,0.335,0.469c0.267,0.324,0.457,0.584,0.572,0.779
								c0.178,0.312,0.267,0.61,0.267,0.898c0,0.293-0.089,0.492-0.267,0.596c-0.178,0.103-0.394,0.082-0.65-0.066
								c-0.256-0.148-0.469-0.375-0.65-0.685c-0.178-0.31-0.267-0.586-0.267-0.833l0.281,0.077c0,0.213,0.063,0.427,0.185,0.64
								c0.127,0.216,0.277,0.373,0.45,0.474c0.174,0.101,0.324,0.115,0.45,0.047c0.124-0.07,0.188-0.209,0.188-0.413
								c0-0.202-0.061-0.408-0.185-0.621C265.379,281.398,265.245,281.208,265.041,280.939z"/>
							<path d="M266.72,280.183l0.284,0.164v0.499c0.054-0.052,0.112-0.096,0.178-0.136c0.34-0.19,0.748-0.148,1.227,0.129
								c0.479,0.277,0.887,0.704,1.224,1.288c0.338,0.582,0.507,1.147,0.507,1.698c0,0.547-0.169,0.917-0.507,1.112
								c-0.338,0.195-0.746,0.153-1.224-0.124c-0.478-0.277-0.887-0.706-1.227-1.29c-0.066-0.117-0.124-0.23-0.178-0.342v2.078
								l-0.284-0.164V280.183z M267.004,281.675v0.68c0.056,0.342,0.185,0.692,0.392,1.046c0.279,0.483,0.617,0.84,1.013,1.067
								c0.394,0.228,0.732,0.265,1.011,0.103c0.279-0.159,0.42-0.464,0.42-0.919c0-0.453-0.141-0.922-0.42-1.405
								c-0.279-0.481-0.617-0.837-1.011-1.065c-0.396-0.228-0.734-0.263-1.013-0.103
								C267.189,281.197,267.06,281.396,267.004,281.675z"/>
							<path d="M274.27,288.096l-0.284-0.164v-0.725c-0.056,0.054-0.115,0.101-0.178,0.138c-0.34,0.195-0.748,0.152-1.229-0.124
								c-0.476-0.274-0.884-0.706-1.224-1.29c-0.338-0.584-0.507-1.149-0.507-1.698s0.169-0.922,0.507-1.114
								c0.34-0.192,0.748-0.15,1.224,0.124c0.481,0.277,0.889,0.706,1.229,1.292c0.063,0.113,0.122,0.228,0.178,0.345v-0.504
								l0.284,0.164V288.096z M273.986,286.368v-0.645c-0.054-0.347-0.183-0.704-0.394-1.065c-0.281-0.483-0.619-0.84-1.013-1.067
								c-0.394-0.228-0.732-0.263-1.013-0.103c-0.279,0.159-0.417,0.467-0.417,0.919c0,0.455,0.138,0.922,0.417,1.403
								c0.281,0.481,0.619,0.835,1.013,1.065c0.394,0.228,0.732,0.26,1.013,0.101C273.803,286.858,273.932,286.654,273.986,286.368z
								"/>
							<path d="M275.501,286.044v2.763l-0.284-0.164v-3.556l0.284,0.164v0.228c0.258-0.145,0.558-0.117,0.901,0.08
								c0.366,0.211,0.664,0.516,0.894,0.91c0.228,0.396,0.347,0.795,0.352,1.198v2.378l-0.284-0.164v-2.348
								c0-0.302-0.094-0.615-0.284-0.938c-0.192-0.324-0.417-0.561-0.678-0.711c-0.26-0.15-0.486-0.176-0.673-0.073
								C275.626,285.868,275.548,285.946,275.501,286.044z M276.416,284.792c0.157,0.237,0.288,0.385,0.392,0.443l0.014,0.009
								c0.105,0.052,0.178-0.007,0.22-0.178l0.218,0.127c-0.045,0.286-0.148,0.408-0.314,0.371
								c-0.042-0.012-0.087-0.031-0.131-0.056c-0.12-0.068-0.239-0.192-0.361-0.375c-0.16-0.232-0.289-0.38-0.392-0.439
								l-0.016-0.009c-0.103-0.054-0.178,0.005-0.22,0.176l-0.22-0.127c0.047-0.284,0.15-0.408,0.314-0.368
								c0.045,0.012,0.089,0.03,0.134,0.054C276.172,284.489,276.294,284.614,276.416,284.792z"/>
							<path d="M280.136,287.606c0.478,0.277,0.889,0.706,1.227,1.292c0.338,0.582,0.507,1.149,0.507,1.698
								c0,0.549-0.169,0.919-0.507,1.112c-0.338,0.195-0.748,0.152-1.227-0.124c-0.476-0.274-0.884-0.706-1.222-1.288
								c-0.34-0.586-0.509-1.152-0.509-1.698c0-0.551,0.169-0.924,0.509-1.116C279.252,287.29,279.66,287.332,280.136,287.606z
								 M279.125,287.853c-0.281,0.157-0.42,0.464-0.42,0.917c0,0.455,0.138,0.922,0.42,1.402c0.277,0.481,0.617,0.837,1.011,1.065
								c0.396,0.227,0.734,0.263,1.013,0.106c0.279-0.159,0.42-0.464,0.42-0.919c0-0.453-0.141-0.922-0.42-1.402
								c-0.279-0.483-0.617-0.837-1.013-1.067C279.742,287.726,279.402,287.691,279.125,287.853z"/>
							<path d="M282.91,287.294v5.791l-0.284-0.164v-5.791L282.91,287.294z"/>
						</g>
						<g>
							<path d="M201.196,243.898v2.008l-0.284-0.164v-5.791l1.323,0.765c0.387,0.284,0.713,0.657,0.983,1.121
								c0.321,0.553,0.483,1.093,0.483,1.614c0,0.525-0.162,0.877-0.483,1.06c-0.321,0.183-0.711,0.145-1.166-0.117L201.196,243.898
								z M201.196,240.444v3.124l0.856,0.495c0.375,0.216,0.697,0.249,0.962,0.098c0.267-0.152,0.399-0.446,0.399-0.877
								c0-0.432-0.131-0.875-0.399-1.335c-0.265-0.455-0.586-0.793-0.962-1.008L201.196,240.444z"/>
							<path d="M204.604,249.229l-0.319-0.185l0.819-1.541l-1.177-3.574l0.319,0.183l1.016,3.07l1.023-1.893l0.317,0.183
								L204.604,249.229z"/>
							<path d="M209.78,250.008l0.3,0.296c-0.054,0.056-0.115,0.103-0.188,0.143c-0.335,0.195-0.746,0.152-1.227-0.124
								c-0.476-0.277-0.884-0.706-1.222-1.29c-0.34-0.584-0.509-1.152-0.509-1.7c0-0.549,0.169-0.919,0.509-1.112
								c0.338-0.195,0.746-0.152,1.222,0.124c0.481,0.277,0.891,0.706,1.227,1.29c0.073,0.122,0.134,0.239,0.188,0.354l-0.3-0.047
								c-0.031-0.061-0.066-0.124-0.101-0.188c-0.279-0.481-0.617-0.835-1.013-1.062c-0.392-0.227-0.729-0.263-1.008-0.103
								c-0.279,0.159-0.42,0.464-0.42,0.917c0,0.455,0.141,0.922,0.42,1.405c0.279,0.483,0.617,0.837,1.008,1.062
								c0.396,0.23,0.734,0.265,1.013,0.105C209.714,250.055,209.749,250.034,209.78,250.008z"/>
							<path d="M213.493,252.152l0.3,0.296c-0.054,0.056-0.115,0.103-0.188,0.143c-0.335,0.195-0.746,0.153-1.227-0.124
								c-0.476-0.277-0.884-0.706-1.222-1.29c-0.34-0.584-0.509-1.152-0.509-1.7s0.169-0.919,0.509-1.112
								c0.338-0.195,0.746-0.153,1.222,0.124c0.481,0.277,0.891,0.706,1.227,1.29c0.073,0.122,0.134,0.239,0.188,0.354l-0.3-0.047
								c-0.031-0.061-0.066-0.124-0.101-0.188c-0.279-0.481-0.617-0.835-1.013-1.063c-0.392-0.227-0.729-0.263-1.008-0.103
								c-0.279,0.16-0.42,0.464-0.42,0.917c0,0.455,0.141,0.922,0.42,1.405c0.279,0.483,0.617,0.837,1.008,1.063
								c0.396,0.23,0.734,0.265,1.013,0.105C213.427,252.199,213.462,252.177,213.493,252.152z"/>
							<path d="M216.302,251.073l-0.765,0.645l1.215,3.171l-0.347-0.202l-1.055-2.817l-0.628,0.441v1.405l-0.288-0.167v-3.556
								l0.288,0.167v1.63l1.215-0.929L216.302,251.073z"/>
							<path d="M217.032,251.495l0.281,0.162v3.011l1.979-1.867l0.305,0.176v3.553l-0.281-0.162v-3.037l-2.003,1.876v0.005
								l-0.281-0.164V251.495z"/>
							<path d="M220.24,253.348l0.281,0.162v3.011l1.982-1.867l0.303,0.176v3.553l-0.281-0.162v-3.037l-2.003,1.876v0.005
								l-0.281-0.164V253.348z M221.016,252.508c0.016,0.136,0.063,0.274,0.145,0.413c0.101,0.174,0.223,0.303,0.366,0.385
								c0.141,0.08,0.263,0.094,0.364,0.037c0.082-0.047,0.129-0.127,0.143-0.249l0.23,0.134c-0.016,0.19-0.087,0.321-0.213,0.394
								c-0.143,0.084-0.319,0.066-0.523-0.054c-0.209-0.12-0.385-0.303-0.525-0.551c-0.138-0.239-0.211-0.453-0.22-0.645
								L221.016,252.508z"/>
						</g>
					</g>
				</g>
			</g>
			<path style="fill:#4F5F66;" d="M304.794,193.014l-0.135,43.974l-98.906,26.331l-21.324-12.305
				c-3.628-2.094-6.552-7.163-6.541-11.331l0.042-12.896L304.794,193.014z"/>
			<path style="fill:#4F5F66;" d="M304.929,147.578l-126.864,33.774l0.042-13.57l119.411-31.794l0.871,0.508
				C301.944,138.548,304.836,143.452,304.929,147.578z"/>
			<polygon style="fill:#4F5F66;" points="304.908,156.596 304.867,170.166 178.003,203.95 178.044,190.381 			"/>
		</g>
	</g>
	<g>
		
			<ellipse transform="matrix(0.0054 -1 1 0.0054 -233.1079 504.9861)" style="fill:#E3ECFF;" cx="137.312" cy="369.681" rx="24.815" ry="42.983"/>
		<g>
			<g>
				<path style="fill:#FFB78C;" d="M120.275,203.912c-0.324-2.038-0.868-4.102-2.092-5.763c-1.224-1.662-3.248-2.855-5.298-2.615
					c-1.72,0.202-2.346,1.443-3.091,2.832c-0.758,1.413-1.384,2.896-1.822,4.441c-0.654,2.31-1.148,4.661-1.632,7.01
					c-0.587,2.853-1.229,5.423-2.425,8.087c-0.225,0.501-0.443,1.004-0.655,1.51c-1.765,4.21-3.123,8.618-3.968,13.107
					c-0.858,4.56-0.937,9.252-1.031,13.879c-0.066,3.252-0.042,6.405-1.213,9.501c-0.334,0.883-0.685,1.76-1.051,2.63
					c-0.208,0.494-0.426,1.008-0.398,1.543c0.021,0.403,0.179,0.784,0.336,1.156c0.401,0.954,0.802,1.908,1.203,2.862
					c0.126,0.3,0.259,0.61,0.498,0.831c0.192,0.178,0.438,0.284,0.679,0.384c1.06,0.436,2.148,0.801,3.256,1.091
					c0.29,0.076,0.593,0.147,0.886,0.086c0.189-0.039,0.364-0.133,0.551-0.181c0.713-0.186,1.493,0.289,2.188,0.044
					c0.157-0.055,0.301-0.146,0.462-0.186c0.155-0.039,0.32-0.03,0.476-0.067c0.53-0.127,0.8-0.765,0.712-1.303
					c-0.088-0.538-0.434-0.992-0.768-1.422c-0.807-1.037-1.615-2.074-2.422-3.111c-0.346-0.444-0.696-0.896-0.902-1.42
					c0.36-0.016,0.72-0.018,1.08-0.005c0.078,0.003,0.161,0.008,0.222,0.055c0.066,0.05,0.092,0.134,0.116,0.213
					c0.381,1.272,0.993,2.472,1.77,3.549c0.219,0.303,0.46,0.605,0.788,0.787c0.327,0.181,0.762,0.215,1.062-0.009
					c0.458-0.343,0.38-1.039,0.255-1.597c-0.312-1.395-0.624-2.79-0.936-4.185c-0.177-0.793-0.397-1.653-1.045-2.142
					c-0.38-0.286-1.066-0.404-1.332-0.818c-0.371-0.577-0.342-1.815-0.264-2.468c0.142-1.189,2.174-8.031,3.025-10.241
					c1.674-4.347,3.05-8.849,4.815-13.149c1.624-3.957,3.86-7.617,5.712-11.465c1.105-2.296,2.607-5.097,2.656-7.686
					C120.712,207.746,120.578,205.816,120.275,203.912z"/>
				<path style="fill:#6B6CB3;" d="M127.221,187.133c0.44-0.517,0.871-1.041,1.252-1.602c-5.518-1.834-11.758,0.338-15.207,4.935
					c-2.896,3.86-4.65,8.452-6.025,13.077c-0.174,0.585-0.344,1.206-0.194,1.798c0.083,0.33,0.26,0.627,0.444,0.913
					c1.114,1.744,2.588,3.216,4.333,4.338c2.471,1.589,5.439,2.237,8.368,2.474c0.69,0.056,1.412,0.085,2.046-0.194
					c1.479-0.65,0.954-2.2,0.77-3.429c-0.238-1.59-0.357-3.197-0.368-4.804c-0.022-3.227,0.386-6.452,1.144-9.587
					c0.147-0.608,0.415-1.274,0.439-1.901c0.018-0.473-0.072-0.858,0.044-1.347c0.251-1.061,0.822-2.026,1.473-2.888
					C126.207,188.301,126.72,187.722,127.221,187.133z"/>
				<path style="fill:#4D4D80;" d="M101.572,371.473c-0.321,0.525-0.65,1.042-0.879,1.616c-1.01,2.539-0.471,6.125,2.452,7.069
					c1.01,0.326,2.111,0.202,3.141-0.051c1.03-0.253,2.03-0.631,3.076-0.813c1.953-0.34,3.949,0.02,5.917,0.26
					c1.968,0.239,4.042,0.342,5.854-0.464c1.62-0.721,2.787-2.23,3.361-3.878c0.552-1.586,0.941-3.926-0.983-4.635
					c-1.221-0.45-2.559-0.4-3.851-0.555c-2.131-0.254-4.186-1.096-5.895-2.393c-0.391-0.296-0.808-0.603-1.089-1.008
					c-0.26-0.375-0.233-0.606-0.706-0.812c-1.041-0.453-2.561-0.594-3.686-0.812c-1.074-0.208-2.218-0.269-3.231,0.145
					c-2.136,0.872-2.103,3.649-2.984,5.444c-0.136,0.277-0.289,0.546-0.449,0.811C101.602,371.422,101.587,371.448,101.572,371.473z
					"/>
				<path style="fill:#FFAA00;" d="M145.661,273.392c-1.093-1.689-1.487-3.72-1.95-5.678c-0.986-4.168-2.384-8.239-4.167-12.133
					c-0.617-1.348-1.3-2.702-2.365-3.733c-1.547-1.498-3.717-2.144-5.825-2.583c-1.746-0.364-3.674-0.044-4.774,1.491
					c-0.732,1.022-1.471,2.042-2.167,3.089c-0.467,0.702-1.216,1.034-1.642,1.712c-3.077,4.898-5.071,10.526-5.377,16.302
					c-0.184,3.465,0.2,6.964,0.387,10.406c0.185,3.42-0.364,6.827-0.657,10.225c-0.705,8.152-3.182,16.265-6.546,23.723
					c-1.931,4.281-3.585,8.242-4.671,12.825c-0.813,3.43-1.284,6.932-1.574,10.442c-0.163,1.974-0.269,3.953-0.344,5.932
					c-0.204,5.384-0.194,10.777-0.559,16.154c-0.106,1.563-0.243,3.125-0.427,4.681c-0.092,0.778-0.226,1.553-0.312,2.331
					c-0.218,1.989,3.292,1.862,4.47,1.856c2.115-0.01,4.23-0.444,6.169-1.291c0.854-0.373,0.944-0.649,0.892-1.475
					c-0.065-1.04,0.591-7.603,0.894-9.803c0.567-4.109,1.157-8.484,2.452-12.438c1.286-3.925,2.88-7.79,4.296-11.68
					c0.816-2.241,6.368-16.392,7.096-17.978c1.708-3.715,3.415-7.429,5.123-11.144c2.34-5.09,4.681-10.182,6.819-15.361
					c1.884-4.563,3.609-9.192,5.114-13.893c0.095-0.298,0.191-0.607,0.155-0.918C146.125,274.06,145.877,273.725,145.661,273.392z"
					/>
				<path style="fill:#6B6CB3;" d="M148.057,372.642c0.031,0.935,0.27,1.831,0.929,2.521c0.605,0.633,1.497,0.939,2.373,0.964
					c0.876,0.025,1.74-0.206,2.559-0.517c2.915-1.106,5.378-3.21,8.316-4.251c1.685-0.597,3.506-0.837,5.082-1.679
					c0.884-0.472,1.662-1.12,2.386-1.813c1.276-1.221,2.365-2.669,2.967-4.342c0.486-1.352,1.185-4.154-0.201-5.193
					c-1.527-1.145-3.261-1.228-5.105-1.083c-3.138,0.248-6.087,0.832-9.046,1.948c-0.984,0.371-1.951,0.787-2.897,1.246
					c-0.777,0.377-1.693,0.693-2.362,1.233c-0.919,0.743-1.642,1.7-2.285,2.692c-1.099,1.697-1.997,3.564-2.404,5.554
					C148.198,370.758,148.027,371.719,148.057,372.642z"/>
				<path style="fill:#FFEA00;" d="M166.25,255.171c-0.397,2.714-0.94,4.719-3.74,5.597c-1.763,0.552-3.666,0.491-5.488,0.181
					c-2.538-0.432-4.995-1.339-7.206-2.66c-2.851-1.703-5.285-4.079-8.269-5.535c-3.246-1.583-6.614-1.494-8.958,1.61
					c-1.489,1.972-2.052,4.49-2.305,6.949c-0.867,8.433,2.48,16.584,9.628,21.366c1.051,0.703,2.195,1.352,2.909,2.397
					c0.662,0.97,0.875,2.17,1.028,3.334c0.801,6.073,0.209,12.164,0.595,18.238c0.403,6.354,0.478,12.729,0.222,19.09
					c-0.14,3.503-0.371,7.009-0.272,10.517c0.1,3.571,0.824,6.765,1.672,10.201c0.812,3.292,1.456,6.712,2.006,10.078
					c0.304,1.859,0.571,3.725,0.822,5.592c0.07,0.525,0.329,4.947,0.648,5.046c3.089,0.965,6.661,0.183,9.064-1.984
					c0.204-0.184,0.404-0.384,0.509-0.637c0.092-0.225,0.102-0.474,0.11-0.717c0.324-9.775,0.648-19.55,0.971-29.325
					c0.292-8.831,1.374-16.923,4.132-25.363c1.381-4.227,2.894-8.416,4.041-12.715c1.131-4.24,1.647-8.537,2.116-12.882
					c0.971-8.988-0.628-18.108-3.59-26.595C166.688,256.356,166.473,255.762,166.25,255.171z"/>
				<path style="fill:#4D4D80;" d="M124.94,184.937c-2.728,0.215-5.256,1.074-7.173,3.012c-3.787,3.829-4.608,10.261-4.012,15.383
					c0.54,4.646,1.977,9.186,4.208,13.298c1.832,3.375,4.212,6.511,5.313,10.19c1.666,5.567-2.982,26.873-3.302,31.837
					c-0.1,1.554-0.043,2.016,1.063,3.219c3.305,3.596,7.597,6.205,12.179,7.897c4.582,1.692,9.454,2.494,14.329,2.802
					c6.841,0.432,13.966-0.159,20.015-3.384c0.488-0.26,0.976-0.543,1.352-0.949c0.83-0.895,0.978-2.219,0.943-3.439
					c-0.065-2.243-0.911-4.366-1.349-6.558c-2.111-10.574-4.597-21.292-3.552-32.025c0.415-4.265,1.384-8.445,2.223-12.639
					c0.735-3.676,2.592-8.49-0.306-11.536c-4.611-4.848-10.925-7.634-17.063-10.298c-3.743-1.625-7.5-3.244-11.387-4.499
					C134.657,186.031,129.517,184.577,124.94,184.937z"/>
				<path style="fill:#FFB78C;" d="M153.623,164.074c-0.012,0.184-0.024,0.368-0.036,0.551c-0.057,0.922-0.168,1.838,0.093,2.734
					c0.255,0.872,0.69,1.691,0.847,2.591c0.182,1.047-0.041,2.118-0.276,3.154c-0.341,1.509-0.708,3.011-1.101,4.508
					c-0.299,1.141-0.655,2.346-1.541,3.123c-0.424,0.372-0.942,0.618-1.396,0.953c-1.538,1.132-2.176,3.146-2.277,5.053
					c-0.102,1.907,0.237,3.813,0.21,5.723c-3.308,0.893-6.764,1.234-10.182,1.004c-2.896-0.194-5.897-0.86-8.102-2.747
					c-0.108-0.092-0.217-0.192-0.273-0.323c-0.069-0.163-0.046-0.347-0.027-0.523c0.502-4.662-2.657-8.676-3.564-13.072
					c-0.885-4.29-1.605-8.714-0.889-13.035c0.716-4.322,3.102-8.581,7.029-10.522c2.621-1.295,5.653-1.455,8.574-1.335
					c2.523,0.103,5.084,0.408,7.393,1.431c2.309,1.023,4.357,2.852,5.163,5.245C153.866,160.357,153.744,162.237,153.623,164.074z"
					/>
				<path style="fill:#754600;" d="M149.374,153.231c-1.175-0.843-2.518-1.404-3.981-1.859c-1.657-0.516-3.454-0.86-5.188-0.912
					c-7.429-0.221-13.588,4.431-15.854,11.471c-0.199,0.617-0.372,1.242-0.522,1.873c-0.996,4.208-0.895,8.656,0.197,12.834
					c0.546,2.09,1.341,4.116,2.373,6.014c0.516,0.948,1.09,1.865,1.722,2.74c0.755,1.046,1.156,1.591,2.478,1.784
					c3.473,0.507,6.99-0.684,10.07-2.368c4.064-2.221,7.666-5.366,10.136-9.284c3.756-5.958,5.069-14.747,0.374-20.587
					C150.635,154.26,150.031,153.702,149.374,153.231z"/>
				<path style="fill:#FFE5CC;" d="M208.807,153.505c-0.391-0.518-1.13-0.584-1.779-0.605c-0.002-0.418-0.358-0.744-0.717-0.958
					c-0.359-0.214-0.766-0.389-1.002-0.734c-0.155-0.228-0.222-0.512-0.409-0.715c-0.462-0.503-1.287-0.222-1.902,0.075
					c-0.615,0.297-1.477,0.522-1.879-0.03c-0.173-0.238-0.192-0.551-0.19-0.845c0.02-2.716,1.281-5.391,0.826-8.069
					c-0.078-0.461-0.308-1.003-0.773-1.043c-0.403-0.035-0.715,0.338-0.912,0.69c-0.642,1.146-0.884,2.466-1.117,3.759
					c-0.204,1.135-0.409,2.269-0.614,3.404c-0.348,1.929-0.696,3.858-1.016,5.792c-0.24,1.449-0.465,2.919-0.336,4.383
					c0.087,0.99,0.47,2.028,0.486,3.007c0.014,0.817-3.872,14.53-4.804,17.35c-0.69,2.088-1.345,4.189-1.893,6.319
					c-0.207,0.805-0.395,1.644-0.454,2.475c-2.383,1.4-11.041,6.278-13.06,7.046c-1.962,0.746-3.878,1.051-5.375,2.636
					c-0.216,0.229-0.428,0.471-0.543,0.764c-0.209,0.533-0.062,1.13,0.054,1.69c0.741,3.566,0.12,7.398-1.708,10.549
					c-0.34,0.586-0.733,1.189-0.74,1.867c2.734-0.132,5.504-0.27,8.115-1.093c3.068-0.968,5.764-2.834,8.362-4.731
					c2.005-1.465,3.985-2.965,5.937-4.5c2.753-2.164,5.467-4.411,7.75-7.066c2.191-2.547,2.685-5.439,3.548-8.544
					c1.028-3.696,1.463-7.555,1.665-11.377c0.151-2.864,0.168-5.76,0.84-8.548c0.303-1.26,0.278-2.51,0.967-3.638
					c0.903-1.478,1.18-2.777,1.41-4.487c0.073-0.542,0.166-1.088,0.391-1.586c0.245-0.541,0.637-1.004,0.889-1.542
					C209.077,154.662,209.165,153.98,208.807,153.505z"/>
				<path style="fill:#6B6CB3;" d="M164.926,195.501c-1.622,0.039-3.243,0.122-4.857,0.295c-2.61,0.28-5.731,0.564-7.87,2.208
					c-1.723,1.325-2.194,3.419-2.189,5.48c0.005,2.053,1.521,4.665,2.66,6.337c2.686,3.944,7.671,5.549,12.259,5.484
					c2.026-0.029,4.05-0.257,6.032-0.681c0.998-0.214,2.369-0.523,3.159-1.219c0.96-0.847,1.645-2.389,2.175-3.529
					c1.196-2.574,1.807-5.423,1.734-8.262c-0.065-2.544-0.959-6.073-4.098-6.107c-1.613-0.017-3.227-0.029-4.841-0.035
					C167.703,195.468,166.314,195.468,164.926,195.501z"/>
				<path style="fill:#754600;" d="M128.112,190.719c-2.205,2.404-3.079,5.959-2.239,9.111c0.131,0.49,0.301,0.979,0.299,1.487
					c-0.002,0.548-0.204,1.073-0.354,1.6c-0.405,1.427-0.431,2.96-0.074,4.4c0.172,0.692,0.432,1.383,0.379,2.094
					c-0.044,0.594-0.305,1.147-0.501,1.71c-0.634,1.817-0.598,3.86,0.099,5.654c0.263,0.678,0.622,1.34,0.667,2.065
					c0.039,0.621-0.156,1.229-0.281,1.839c-0.376,1.839-0.096,3.804,0.778,5.465c0.259,0.492,0.572,0.971,0.668,1.518
					c0.095,0.541-0.033,1.093-0.16,1.628c-0.574,2.41-1.148,4.819-1.722,7.229c-0.638,2.679-1.279,5.382-1.353,8.135
					c-0.101,3.754,0.885,7.53,2.809,10.755c1.668-0.55,2.71-2.195,3.407-3.807c1.687-3.9,2.154-8.319,1.318-12.485
					c-0.446-2.226-1.252-4.37-2.252-6.409c-0.175-0.357-0.361-0.742-0.301-1.135c0.061-0.396,0.358-0.706,0.62-1.008
					c2.185-2.522,2.691-6.37,1.234-9.372c-0.297-0.612-0.675-1.213-0.727-1.891c-0.066-0.855,0.393-1.649,0.711-2.446
					c0.627-1.571,0.723-3.348,0.268-4.977c-0.118-0.423-0.274-0.854-0.216-1.289c0.051-0.388,0.266-0.731,0.444-1.079
					c1.153-2.25,0.776-5.192-0.908-7.078c0.848-1.221,1.706-2.46,2.205-3.861c0.498-1.401,0.603-3.006-0.05-4.342
					c-0.204-0.418-0.485-0.828-0.484-1.293c0-0.441,0.255-0.836,0.486-1.212c1.149-1.865,1.956-4.058,1.637-6.225
					c-0.353-2.401-2.839-5.336-5.306-3.36c-1.128,0.903-1.535,2.438-1.705,3.808c-0.1,0.804-0.102,1.622-0.002,2.426
					C127.536,188.626,128.161,190.665,128.112,190.719z"/>
			</g>
		</g>
	</g>
	<g>
		<path style="fill:#E3ECFF;" d="M347.159,441.2l-63.172-36.473c-2.354-1.359-2.059-3.733,0.66-5.303l96.477-55.701
			c2.719-1.57,6.831-1.74,9.185-0.381l63.172,36.473c2.354,1.359,2.059,3.734-0.66,5.303l-96.477,55.701
			C353.626,442.388,349.514,442.559,347.159,441.2z"/>
		<g>
			<g>
				<polygon style="fill:#FFEA00;" points="291.576,398.501 347.864,365.849 355.595,409.048 347.435,430.618 341.211,429.33 				
					"/>
				<polygon style="fill:#EFF0F2;" points="297.562,381.523 297.562,397.266 347.623,426.191 347.623,413.716 343.518,408.324 				
					"/>
				<polygon style="fill:#CED3DE;" points="297.562,390.399 322.592,404.837 297.562,392.076 				"/>
				<path style="fill:#FFAA00;" d="M346.77,432.15l85.969-49.552l0.245-0.142c1.159-0.708,1.97-1.957,1.97-3.503v-14.114
					l-2.563,1.481l-12.761,7.366l-3.065,1.764l-67.142,38.748l-1.404,14.848L346.77,432.15z"/>
				<path style="fill:#FFD60A;" d="M338.979,404.207l10.444,9.993l67.142-38.748l3.065-1.764l12.761-7.366l2.563-1.481
					c0-2.472-1.314-4.752-3.464-6.001l-6.979-4.018l-0.026,0.013l-3.052,1.764l-15.698,9.066l-3.065,1.764L338.979,404.207z"/>
				<path style="fill:#CED3DE;" d="M347.625,413.72v12.472l-1.785-1.027v-3.733c0-1.19,0.082-2.439-0.14-3.605
					c-0.233-1.237-0.922-2.345-1.762-3.243c-0.058-0.058-0.105-0.117-0.163-0.163c-2.625-2.684-6.125-4.34-9.345-6.184
					c-3.139-1.785-6.266-3.582-9.392-5.367c-3.36-1.925-6.72-3.85-10.081-5.764c-3.115-1.785-6.242-3.57-9.357-5.355
					c-2.415-1.388-4.842-2.765-7.257-4.154c-0.257-0.152-0.525-0.303-0.782-0.443v-5.635l45.958,26.812L347.625,413.72z"/>
				<path style="fill:#FFC400;" d="M343.753,428.624l-4.775-2.758l-47.402-27.365v3.528l47.402,27.365l4.284,2.471
					c0.635,0.37,1.307,0.544,1.964,0.559c2.176,0.038,4.193-1.685,4.193-4.118v-14.106c0-2.478-1.315-4.76-3.46-5.999l-6.981-4.027
					v0.035l-47.402-27.365v3.528l47.402,27.365l4.284,2.47c0.14,0.082,0.282,0.15,0.424,0.212l0.566,0.327
					c1.617,0.929,2.607,2.652,2.607,4.51v11.567C346.858,428.42,345.135,429.417,343.753,428.624z"/>
				<polygon style="fill:#FFEA00;" points="291.576,376.845 338.978,404.21 424.511,354.818 377.109,327.488 				"/>
			</g>
			<g>
				<path style="fill:#F2F2F2;" d="M380.093,408.415v0.769l-5.181,2.99v-8.79l5.082-2.934v0.767l-4.322,2.496v3.17l3.767-2.175v0.73
					l-3.767,2.175v3.356L380.093,408.415z"/>
				<path style="fill:#F2F2F2;" d="M383.186,407.522c-0.44,0.255-0.871,0.419-1.293,0.497c-0.419,0.077-0.78,0.046-1.085-0.092
					l0.337-0.764c0.318,0.115,0.642,0.149,0.97,0.11c0.331-0.043,0.684-0.173,1.06-0.389c0.455-0.264,0.82-0.579,1.091-0.946
					c0.27-0.367,0.408-0.745,0.408-1.132c0-0.182-0.038-0.311-0.11-0.389c-0.072-0.078-0.178-0.121-0.321-0.131
					c-0.141-0.01-0.319,0.013-0.532,0.065c-0.213,0.052-0.461,0.124-0.743,0.213c-0.326,0.098-0.609,0.17-0.848,0.216
					c-0.239,0.049-0.435,0.059-0.591,0.033c-0.157-0.026-0.273-0.101-0.347-0.226c-0.077-0.124-0.116-0.316-0.116-0.573
					c0-0.322,0.057-0.64,0.169-0.952c0.113-0.311,0.265-0.602,0.457-0.874c0.191-0.273,0.416-0.524,0.674-0.756
					c0.255-0.229,0.53-0.429,0.818-0.596c0.435-0.252,0.83-0.399,1.183-0.442c0.357-0.044,0.641,0.003,0.859,0.141l-0.358,0.704
					c-0.21-0.128-0.465-0.165-0.766-0.116c-0.299,0.049-0.614,0.169-0.939,0.358c-0.195,0.111-0.376,0.239-0.542,0.38
					c-0.168,0.142-0.314,0.298-0.442,0.471c-0.126,0.172-0.224,0.355-0.298,0.55c-0.072,0.195-0.108,0.394-0.108,0.602
					c0,0.172,0.025,0.298,0.075,0.376c0.051,0.079,0.134,0.123,0.25,0.134c0.116,0.011,0.262-0.003,0.439-0.043
					c0.178-0.043,0.393-0.102,0.646-0.182c0.363-0.111,0.681-0.195,0.956-0.254c0.276-0.062,0.506-0.078,0.69-0.052
					c0.183,0.026,0.324,0.106,0.417,0.242c0.093,0.136,0.142,0.339,0.142,0.61c0,0.594-0.2,1.18-0.599,1.757
					C384.395,406.651,383.86,407.132,383.186,407.522z"/>
				<path style="fill:#F2F2F2;" d="M389.486,403.886c-0.478,0.275-0.9,0.38-1.267,0.314c-0.365-0.065-0.659-0.244-0.884-0.535v3.975
					l-0.738,0.425v-9.088l0.661-0.381v1.25c0.231-0.538,0.532-1.039,0.902-1.505c0.37-0.463,0.771-0.822,1.204-1.072
					c0.391-0.226,0.749-0.34,1.075-0.344c0.327-0.003,0.609,0.083,0.848,0.255c0.239,0.17,0.426,0.419,0.56,0.746
					c0.134,0.329,0.2,0.707,0.2,1.136c0,0.455-0.061,0.918-0.183,1.394c-0.123,0.476-0.299,0.933-0.527,1.368
					c-0.229,0.438-0.499,0.838-0.813,1.194C390.207,403.378,389.86,403.668,389.486,403.886z M389.278,403.261
					c0.304-0.175,0.581-0.409,0.831-0.704c0.25-0.291,0.463-0.61,0.64-0.956c0.178-0.347,0.314-0.702,0.409-1.067
					c0.093-0.363,0.139-0.71,0.139-1.039c0-0.347-0.054-0.646-0.162-0.898c-0.108-0.249-0.257-0.44-0.445-0.573
					c-0.188-0.129-0.411-0.19-0.668-0.183c-0.257,0.01-0.535,0.098-0.831,0.27c-0.188,0.11-0.385,0.265-0.592,0.471
					c-0.205,0.205-0.398,0.434-0.574,0.679c-0.177,0.246-0.329,0.504-0.457,0.771c-0.126,0.267-0.205,0.517-0.232,0.748v1.98
					c0.087,0.183,0.196,0.334,0.331,0.455c0.134,0.119,0.286,0.203,0.457,0.249c0.17,0.046,0.352,0.056,0.548,0.025
					C388.865,403.457,389.068,403.382,389.278,403.261z"/>
				<path style="fill:#F2F2F2;" d="M394.717,400.865c-0.268,0.154-0.516,0.245-0.743,0.272c-0.227,0.03-0.427,0.003-0.597-0.082
					c-0.17-0.082-0.303-0.219-0.398-0.409c-0.093-0.186-0.139-0.424-0.139-0.704c0-0.281,0.057-0.573,0.172-0.88
					c0.116-0.306,0.28-0.605,0.489-0.9c0.21-0.295,0.46-0.574,0.75-0.836s0.609-0.492,0.956-0.694
					c0.29-0.167,0.583-0.306,0.88-0.421c0.296-0.115,0.561-0.183,0.792-0.211v-0.581c0-0.571-0.141-0.943-0.424-1.113
					s-0.674-0.111-1.172,0.177c-0.291,0.167-0.587,0.404-0.89,0.712c-0.304,0.306-0.612,0.674-0.925,1.103l-0.26-0.408
					c0.731-0.983,1.442-1.672,2.129-2.07c0.708-0.411,1.266-0.506,1.671-0.285c0.406,0.219,0.609,0.731,0.609,1.53v2.909
					c0,0.232,0.09,0.295,0.272,0.19v0.743c-0.123,0.096-0.218,0.164-0.281,0.201c-0.188,0.11-0.336,0.139-0.44,0.093
					c-0.106-0.046-0.162-0.164-0.168-0.348l-0.021-0.496c-0.262,0.54-0.589,1.024-0.983,1.458
					C395.599,400.253,395.174,400.6,394.717,400.865z M394.892,400.119c0.383-0.223,0.736-0.507,1.059-0.858
					c0.321-0.352,0.566-0.713,0.731-1.08c0.065-0.113,0.115-0.223,0.147-0.327c0.033-0.105,0.049-0.195,0.049-0.268v-1.052
					c-0.247,0.034-0.502,0.1-0.766,0.193c-0.265,0.096-0.533,0.221-0.808,0.381c-0.522,0.301-0.944,0.668-1.27,1.103
					c-0.327,0.439-0.489,0.857-0.489,1.262c0,0.198,0.034,0.365,0.103,0.499c0.069,0.131,0.164,0.229,0.281,0.288
					c0.119,0.059,0.263,0.079,0.43,0.056C394.526,400.292,394.702,400.227,394.892,400.119z"/>
				<path style="fill:#F2F2F2;" d="M403.969,395.398l-0.738,0.427v-3.603c0-0.769-0.1-1.268-0.299-1.499
					c-0.2-0.232-0.504-0.229-0.918,0.01c-0.216,0.124-0.434,0.296-0.65,0.51c-0.218,0.218-0.419,0.461-0.602,0.733
					c-0.186,0.272-0.35,0.563-0.496,0.874c-0.144,0.311-0.249,0.615-0.314,0.916v3.95l-0.738,0.427v-6.451l0.673-0.388v1.46
					c0.232-0.604,0.563-1.175,0.993-1.713c0.432-0.537,0.898-0.951,1.407-1.244c0.311-0.18,0.574-0.267,0.792-0.26
					c0.218,0.007,0.391,0.092,0.52,0.255c0.131,0.167,0.224,0.406,0.283,0.717c0.057,0.314,0.087,0.681,0.087,1.101V395.398z
					 M402.287,388.47c-0.168,0.096-0.309,0.154-0.43,0.175c-0.12,0.02-0.231,0.028-0.336,0.026c-0.105-0.002-0.208,0-0.304,0.003
					c-0.098,0.002-0.204,0.036-0.321,0.105c-0.123,0.07-0.218,0.154-0.288,0.252c-0.067,0.097-0.123,0.193-0.162,0.285
					c-0.041,0.095-0.065,0.173-0.075,0.242c-0.011,0.069-0.018,0.111-0.018,0.128l-0.456,0.263c0-0.041,0.013-0.133,0.039-0.276
					c0.025-0.141,0.075-0.301,0.147-0.475c0.072-0.173,0.173-0.35,0.303-0.527c0.131-0.18,0.298-0.327,0.501-0.445
					c0.152-0.088,0.283-0.136,0.396-0.147c0.111-0.012,0.219-0.013,0.319-0.007c0.103,0.01,0.206,0.008,0.311,0.002
					c0.105-0.007,0.226-0.051,0.363-0.129c0.137-0.079,0.247-0.174,0.331-0.278c0.083-0.105,0.147-0.209,0.19-0.308
					c0.044-0.098,0.072-0.183,0.083-0.252c0.01-0.069,0.015-0.111,0.015-0.128l0.457-0.262c0,0.043-0.015,0.131-0.044,0.273
					c-0.028,0.139-0.08,0.299-0.157,0.473c-0.075,0.177-0.185,0.357-0.326,0.543C402.683,388.19,402.503,388.344,402.287,388.47z"/>
				<path style="fill:#F2F2F2;" d="M407.955,393.221c-0.414,0.239-0.79,0.365-1.131,0.384c-0.339,0.02-0.635-0.052-0.885-0.213
					c-0.249-0.16-0.444-0.402-0.581-0.728c-0.138-0.326-0.205-0.712-0.205-1.157c0-0.455,0.07-0.926,0.211-1.411
					c0.141-0.486,0.337-0.954,0.586-1.402c0.25-0.45,0.545-0.864,0.884-1.242c0.34-0.378,0.715-0.684,1.121-0.918
					c0.404-0.234,0.779-0.36,1.123-0.378c0.344-0.016,0.641,0.056,0.89,0.219c0.25,0.16,0.445,0.403,0.587,0.723
					c0.141,0.324,0.211,0.714,0.211,1.167c0,0.447-0.069,0.91-0.206,1.396c-0.139,0.484-0.331,0.949-0.581,1.397
					c-0.25,0.452-0.547,0.864-0.892,1.24C408.746,392.675,408.368,392.984,407.955,393.221z M405.903,391.088
					c0,0.363,0.054,0.668,0.16,0.915c0.11,0.249,0.255,0.435,0.442,0.563c0.183,0.131,0.401,0.188,0.65,0.177
					c0.25-0.013,0.516-0.1,0.8-0.263c0.281-0.162,0.548-0.385,0.797-0.666c0.25-0.278,0.468-0.592,0.656-0.936
					c0.188-0.344,0.337-0.704,0.447-1.08c0.108-0.376,0.162-0.746,0.162-1.109c0-0.353-0.054-0.661-0.162-0.916
					c-0.11-0.254-0.259-0.445-0.447-0.571c-0.188-0.126-0.406-0.185-0.656-0.178c-0.249,0.007-0.515,0.095-0.797,0.257
					c-0.285,0.164-0.548,0.383-0.794,0.661c-0.245,0.28-0.465,0.594-0.651,0.941c-0.188,0.347-0.337,0.71-0.447,1.093
					C405.957,390.353,405.903,390.724,405.903,391.088z"/>
				<path style="fill:#F2F2F2;" d="M412.038,381.7l0.738-0.426v7.578c0,0.239,0.057,0.394,0.173,0.463
					c0.116,0.07,0.278,0.043,0.488-0.079c0.08-0.046,0.175-0.111,0.283-0.198c0.108-0.09,0.21-0.18,0.304-0.277l0.131,0.605
					c-0.137,0.147-0.308,0.298-0.507,0.455c-0.198,0.156-0.37,0.275-0.514,0.357c-0.342,0.198-0.609,0.245-0.803,0.137
					c-0.196-0.106-0.293-0.357-0.293-0.753V381.7z"/>
			</g>
			<g>
				<path style="fill:#FFEA00;" d="M368.175,418.618l-10.327,5.962c-0.406,0.234-0.734-0.014-0.734-0.555v-11.577
					c0-0.541,0.329-1.168,0.734-1.403l10.327-5.962c0.405-0.234,0.734,0.014,0.734,0.555v11.577
					C368.909,417.756,368.581,418.384,368.175,418.618z"/>
				<path style="fill:#E70317;" d="M368.91,405.568v2.056l-11.795,6.81v-2.056c0-0.501,0.354-1.113,0.791-1.365l10.212-5.896
					C368.555,404.864,368.91,405.066,368.91,405.568z"/>
				<path style="fill:#E70317;" d="M368.91,415.428v1.859c0,0.501-0.354,1.113-0.791,1.365l-10.212,5.896
					c-0.437,0.252-0.791,0.05-0.791-0.451v-1.859L368.91,415.428z"/>
			</g>
			<path style="fill:#E70317;" d="M307.397,396.187c-0.226,0.125-0.427,0.301-0.627,0.476c-0.602,0.576-1.053,1.303-1.454,2.03
				c-0.125,0.251-0.276,0.527-0.376,0.802c-0.777,1.629-1.354,3.358-2.256,4.937c-1.328,2.256-3.408,4.086-5.814,5.113l0.42-3.518
				l-6.216,0.1c2.406-1.028,4.461-2.858,5.789-5.113c0.902-1.554,1.479-3.283,2.231-4.912c0.125-0.275,0.251-0.551,0.401-0.827
				c0.401-0.727,0.852-1.453,1.454-2.03c0.175-0.176,0.376-0.326,0.576-0.451L307.397,396.187z"/>
		</g>
		<g>
			<g>
				<polygon style="fill:#D7DDE8;" points="303.204,373.092 359.493,340.44 367.224,383.64 359.064,405.209 352.839,403.922 				"/>
				<polygon style="fill:#E6E6E6;" points="309.191,356.115 309.191,371.858 359.251,400.783 359.251,388.308 355.147,382.915 				
					"/>
				<polygon style="fill:#B3B3B3;" points="309.191,369.228 334.221,383.667 309.191,370.906 				"/>
				<path style="fill:#B3BAC9;" d="M358.398,406.742l85.969-49.552l0.245-0.142c1.159-0.708,1.97-1.957,1.97-3.503v-14.114
					l-2.563,1.481l-12.761,7.366l-3.065,1.764l-67.142,38.748l-1.404,14.848L358.398,406.742z"/>
				<path style="fill:#D7DDE8;" d="M350.607,378.798l10.444,9.993l67.142-38.748l3.065-1.764l12.761-7.366l2.563-1.481
					c0-2.472-1.313-4.752-3.464-6.001l-6.979-4.018l-0.026,0.013l-3.052,1.764l-15.698,9.066l-3.065,1.764L350.607,378.798z"/>
				<path style="fill:#F2F2F2;" d="M359.253,388.312v12.472l-1.785-1.027v-3.733c0-1.19,0.082-2.439-0.14-3.605
					c-0.233-1.237-0.922-2.345-1.762-3.244c-0.058-0.058-0.105-0.117-0.163-0.163c-2.625-2.684-6.125-4.34-9.346-6.184
					c-3.138-1.785-6.266-3.582-9.392-5.367c-3.36-1.925-6.72-3.85-10.08-5.764c-3.115-1.785-6.242-3.57-9.357-5.355
					c-2.415-1.389-4.842-2.765-7.257-4.154c-0.257-0.152-0.525-0.303-0.782-0.443v-5.635l45.958,26.812L359.253,388.312z"/>
				<path style="fill:#CED3DE;" d="M355.381,403.215l-4.775-2.758l-47.402-27.365v3.528l47.402,27.365l4.284,2.471
					c0.635,0.37,1.307,0.544,1.964,0.559c2.176,0.038,4.193-1.685,4.193-4.118v-14.106c0-2.478-1.315-4.76-3.46-5.999l-6.981-4.027
					v0.035l-47.402-27.365v3.528l47.402,27.365l4.284,2.47c0.139,0.082,0.281,0.15,0.424,0.212l0.566,0.327
					c1.617,0.929,2.607,2.652,2.607,4.51v11.567C358.487,403.011,356.764,404.008,355.381,403.215z"/>
				<polygon style="fill:#E6E6E6;" points="303.204,351.436 350.607,378.801 436.14,329.41 388.738,302.08 				"/>
			</g>
			<g>
				<path style="fill:#F2F2F2;" d="M385.341,387.46v-8.791l3.193-1.842c0.332-0.193,0.638-0.29,0.918-0.291
					c0.278,0.003,0.519,0.072,0.722,0.216c0.203,0.144,0.362,0.345,0.478,0.609c0.116,0.265,0.173,0.565,0.173,0.903
					c0,0.363-0.054,0.743-0.162,1.139c-0.11,0.399-0.262,0.782-0.457,1.149c-0.196,0.37-0.429,0.71-0.7,1.024
					c-0.272,0.314-0.574,0.568-0.906,0.759l-2.497,1.443v3.243L385.341,387.46z M386.102,383.009l2.464-1.424
					c0.224-0.131,0.429-0.304,0.614-0.52c0.183-0.219,0.34-0.458,0.471-0.718c0.131-0.262,0.232-0.535,0.304-0.82
					s0.11-0.56,0.11-0.825c0-0.272-0.043-0.506-0.126-0.7c-0.082-0.196-0.195-0.345-0.336-0.445c-0.142-0.1-0.308-0.147-0.499-0.139
					c-0.193,0.008-0.394,0.074-0.604,0.195l-2.399,1.384V383.009z"/>
				<path style="fill:#F2F2F2;" d="M391.942,385.355c0.108,0.056,0.218,0.07,0.327,0.049c0.106-0.023,0.223-0.069,0.347-0.139
					c0.093-0.054,0.185-0.139,0.276-0.254c0.09-0.115,0.18-0.272,0.272-0.478c0.088-0.204,0.183-0.463,0.277-0.772
					c0.093-0.311,0.198-0.697,0.314-1.16l-2.464-5.029l0.759-0.439l2.096,4.461l1.944-6.793l0.707-0.408l-2.639,9.039
					c-0.11,0.383-0.219,0.717-0.332,0.997c-0.111,0.28-0.227,0.519-0.347,0.718c-0.119,0.203-0.247,0.37-0.38,0.501
					c-0.134,0.129-0.28,0.242-0.44,0.334c-0.326,0.188-0.576,0.232-0.749,0.134L391.942,385.355z"/>
				<path style="fill:#F2F2F2;" d="M397.24,377.345c0-0.455,0.069-0.923,0.206-1.406c0.137-0.486,0.332-0.949,0.581-1.394
					c0.25-0.447,0.548-0.857,0.895-1.231c0.349-0.373,0.732-0.681,1.154-0.924c0.535-0.309,1.001-0.44,1.399-0.394
					c0.399,0.046,0.699,0.246,0.902,0.601l-0.717,0.674c-0.159-0.239-0.381-0.368-0.668-0.388c-0.286-0.023-0.602,0.069-0.949,0.268
					c-0.291,0.168-0.56,0.389-0.81,0.666c-0.249,0.275-0.468,0.581-0.651,0.915c-0.185,0.334-0.329,0.687-0.434,1.06
					c-0.105,0.375-0.157,0.749-0.157,1.119c0,0.363,0.054,0.674,0.16,0.936c0.11,0.257,0.259,0.452,0.447,0.576
					c0.187,0.128,0.407,0.186,0.656,0.18c0.25-0.01,0.516-0.095,0.799-0.257c0.182-0.105,0.36-0.237,0.538-0.398
					c0.177-0.16,0.34-0.337,0.493-0.527s0.281-0.383,0.391-0.579c0.11-0.193,0.185-0.378,0.229-0.553l0.727-0.17
					c-0.08,0.276-0.196,0.556-0.347,0.838c-0.152,0.281-0.332,0.553-0.538,0.816c-0.206,0.265-0.434,0.509-0.684,0.732
					c-0.249,0.223-0.509,0.411-0.776,0.566c-0.412,0.237-0.794,0.366-1.141,0.389c-0.347,0.025-0.646-0.046-0.9-0.209
					c-0.255-0.164-0.452-0.406-0.592-0.73C397.312,378.2,397.24,377.807,397.24,377.345z"/>
				<path style="fill:#F2F2F2;" d="M403.138,373.94c0-0.455,0.069-0.923,0.206-1.406c0.138-0.486,0.331-0.949,0.581-1.394
					c0.25-0.447,0.548-0.856,0.895-1.229c0.349-0.375,0.731-0.682,1.152-0.926c0.535-0.308,1.002-0.44,1.401-0.393
					c0.398,0.046,0.699,0.245,0.9,0.599l-0.717,0.674c-0.159-0.239-0.381-0.368-0.668-0.388c-0.286-0.021-0.602,0.07-0.949,0.27
					c-0.29,0.167-0.56,0.389-0.808,0.664c-0.25,0.275-0.468,0.583-0.653,0.916c-0.183,0.334-0.329,0.687-0.434,1.06
					c-0.105,0.373-0.157,0.748-0.157,1.119c0,0.363,0.054,0.674,0.162,0.934c0.11,0.257,0.257,0.452,0.447,0.578
					c0.187,0.128,0.406,0.187,0.656,0.178c0.249-0.008,0.516-0.093,0.797-0.257c0.182-0.105,0.36-0.236,0.538-0.396
					c0.178-0.162,0.342-0.337,0.494-0.527c0.151-0.191,0.281-0.385,0.391-0.579c0.108-0.195,0.183-0.38,0.227-0.553l0.727-0.17
					c-0.079,0.275-0.195,0.556-0.347,0.836c-0.151,0.283-0.331,0.555-0.537,0.817c-0.206,0.265-0.435,0.509-0.684,0.731
					c-0.25,0.223-0.509,0.411-0.777,0.566c-0.412,0.237-0.792,0.368-1.139,0.391c-0.347,0.023-0.648-0.046-0.902-0.209
					c-0.254-0.164-0.45-0.407-0.592-0.73C403.208,374.794,403.138,374.402,403.138,373.94z"/>
				<path style="fill:#F2F2F2;" d="M412.843,365.13l0.826-0.478l-2.139,4.356l2.324,1.99l-0.825,0.475l-1.998-1.794l-0.803,0.465
					v2.947l-0.728,0.421v-6.451l0.728-0.421v2.847l0.738-0.427L412.843,365.13z"/>
				<path style="fill:#F2F2F2;" d="M415.484,368.867l3.377-7.211l0.596-0.345v6.451l-0.727,0.421v-5.163l-3.312,7.076l-0.663,0.383
					v-6.451l0.728-0.422V368.867z"/>
				<path style="fill:#F2F2F2;" d="M421.846,365.195l3.377-7.213l0.597-0.344v6.451l-0.728,0.419v-5.163l-3.312,7.074l-0.663,0.383
					v-6.451l0.728-0.419V365.195z M425.06,355.662c-0.015,0.396-0.154,0.772-0.417,1.126c-0.265,0.357-0.63,0.668-1.091,0.934
					c-0.47,0.272-0.836,0.381-1.096,0.329c-0.262-0.051-0.403-0.265-0.424-0.642l0.466-0.268c0.015,0.272,0.108,0.416,0.283,0.425
					c0.174,0.012,0.429-0.082,0.771-0.278c0.34-0.196,0.596-0.398,0.766-0.604c0.17-0.204,0.267-0.458,0.288-0.761L425.06,355.662z"
					/>
			</g>
			<g>
				<path style="fill:#0039A6;" d="M378.553,393.695l-10.027,5.789c-0.394,0.227-0.713-0.014-0.713-0.539v-11.241
					c0-0.525,0.319-1.135,0.713-1.362l10.027-5.789c0.394-0.227,0.713,0.014,0.713,0.539v11.241
					C379.266,392.858,378.947,393.468,378.553,393.695z"/>
				<path style="fill:#F2F2F2;" d="M379.266,381.024v3.612l-11.453,6.612v-3.612c0-0.487,0.344-1.08,0.768-1.325l9.916-5.725
					C378.922,380.341,379.266,380.537,379.266,381.024z"/>
				<path style="fill:#D52B1E;" d="M379.266,389.215v3.188c0,0.487-0.344,1.08-0.768,1.325l-9.916,5.725
					c-0.424,0.245-0.768,0.049-0.768-0.438v-3.188L379.266,389.215z"/>
			</g>
			<path style="fill:#0039A6;" d="M325.698,378.986c-0.226,0.125-0.427,0.301-0.627,0.476c-0.602,0.576-1.053,1.303-1.454,2.03
				c-0.125,0.251-0.276,0.527-0.376,0.802c-0.777,1.629-1.354,3.358-2.256,4.937c-1.328,2.256-3.409,4.086-5.814,5.113l0.42-3.518
				l-6.216,0.1c2.406-1.028,4.461-2.858,5.789-5.113c0.902-1.554,1.479-3.283,2.231-4.912c0.125-0.275,0.251-0.551,0.4-0.827
				c0.401-0.727,0.852-1.453,1.454-2.03c0.175-0.176,0.376-0.326,0.576-0.451L325.698,378.986z"/>
		</g>
		<g>
			<g>
				<polygon style="fill:#595994;" points="289.359,355.291 345.647,322.639 353.378,365.839 345.218,387.408 338.994,386.121 				
					"/>
				<polygon style="fill:#EFF0F2;" points="295.345,338.314 295.345,354.056 345.406,382.982 345.406,370.507 341.301,365.115 				
					"/>
				<polygon style="fill:#CED3DE;" points="295.345,344.556 320.375,358.995 295.345,346.234 				"/>
				<path style="fill:#30306B;" d="M344.553,388.941l85.969-49.552l0.245-0.142c1.159-0.708,1.97-1.957,1.97-3.503v-14.114
					l-2.563,1.481l-12.762,7.366l-3.065,1.764l-67.143,38.748l-1.404,14.848L344.553,388.941z"/>
				<g>
					<path style="fill:#F2F2F2;" d="M378.82,364.021v0.766l-5.179,2.991v-8.791l5.081-2.934v0.767l-4.322,2.495v3.17l3.768-2.176
						v0.73l-3.768,2.176v3.356L378.82,364.021z"/>
					<path style="fill:#F2F2F2;" d="M384.791,361.34l-0.738,0.425v-3.603c0-0.767-0.1-1.267-0.298-1.499
						c-0.201-0.231-0.506-0.229-0.92,0.01c-0.216,0.126-0.434,0.298-0.65,0.512c-0.218,0.218-0.419,0.46-0.602,0.732
						c-0.187,0.273-0.35,0.563-0.494,0.874c-0.146,0.311-0.25,0.617-0.316,0.918v3.95l-0.738,0.427v-6.451l0.673-0.389v1.461
						c0.232-0.604,0.563-1.177,0.993-1.713c0.432-0.537,0.9-0.952,1.407-1.244c0.311-0.18,0.574-0.268,0.792-0.26
						c0.218,0.005,0.391,0.092,0.52,0.255c0.131,0.165,0.224,0.404,0.283,0.715c0.057,0.314,0.087,0.681,0.087,1.103V361.34z"/>
					<path style="fill:#F2F2F2;" d="M388.635,359.206c-0.391,0.226-0.746,0.339-1.07,0.34c-0.321,0-0.601-0.085-0.836-0.255
						c-0.234-0.168-0.417-0.416-0.548-0.736c-0.131-0.321-0.195-0.691-0.195-1.113c0-0.445,0.064-0.908,0.191-1.391
						c0.126-0.481,0.304-0.943,0.537-1.381c0.231-0.439,0.509-0.843,0.83-1.211c0.322-0.366,0.679-0.663,1.07-0.888
						c0.484-0.28,0.905-0.385,1.26-0.313c0.355,0.072,0.658,0.245,0.911,0.52v-1.35l0.663-0.383v6.475
						c0,0.447-0.075,0.884-0.224,1.312c-0.147,0.427-0.347,0.828-0.596,1.204c-0.25,0.376-0.543,0.718-0.88,1.028
						c-0.335,0.311-0.694,0.573-1.069,0.79c-0.651,0.376-1.177,0.548-1.574,0.512c-0.399-0.033-0.722-0.201-0.967-0.504l0.456-0.674
						c0.224,0.285,0.52,0.416,0.89,0.396c0.368-0.02,0.766-0.151,1.195-0.398c0.275-0.159,0.535-0.353,0.781-0.581
						c0.247-0.229,0.461-0.481,0.646-0.756c0.185-0.278,0.332-0.576,0.44-0.9c0.108-0.322,0.162-0.656,0.162-1.003v-1.275
						c-0.216,0.537-0.512,1.034-0.89,1.492C389.443,358.62,389.047,358.969,388.635,359.206z M388.842,358.382
						c0.216-0.124,0.429-0.293,0.64-0.507c0.21-0.209,0.399-0.442,0.569-0.694c0.17-0.249,0.314-0.504,0.43-0.761
						c0.115-0.257,0.19-0.492,0.226-0.712v-1.995c-0.079-0.185-0.187-0.337-0.324-0.456c-0.138-0.118-0.293-0.198-0.468-0.236
						c-0.173-0.043-0.36-0.046-0.558-0.013c-0.2,0.033-0.401,0.108-0.604,0.226c-0.319,0.183-0.602,0.422-0.852,0.72
						c-0.249,0.296-0.462,0.618-0.635,0.967c-0.173,0.349-0.306,0.704-0.396,1.07c-0.092,0.366-0.136,0.71-0.136,1.032
						c0,0.347,0.054,0.645,0.162,0.897c0.11,0.25,0.26,0.439,0.452,0.563c0.191,0.124,0.414,0.183,0.668,0.172
						C388.27,358.643,388.545,358.555,388.842,358.382z"/>
					<path style="fill:#F2F2F2;" d="M393.108,347.498l0.738-0.427v7.58c0,0.239,0.057,0.393,0.173,0.461
						c0.116,0.072,0.28,0.044,0.489-0.077c0.079-0.046,0.174-0.113,0.282-0.198c0.11-0.09,0.209-0.18,0.304-0.276l0.131,0.605
						c-0.137,0.146-0.306,0.296-0.506,0.453c-0.198,0.157-0.37,0.275-0.515,0.358c-0.34,0.198-0.609,0.244-0.803,0.136
						c-0.195-0.105-0.293-0.357-0.293-0.753V347.498z"/>
					<path style="fill:#F2F2F2;" d="M396.029,347.051v-1.24l0.738-0.425v1.239L396.029,347.051z M396.029,354.85V348.4l0.738-0.425
						v6.451L396.029,354.85z"/>
					<path style="fill:#F2F2F2;" d="M400.276,352.523c-0.442,0.255-0.872,0.421-1.293,0.498c-0.421,0.078-0.781,0.047-1.087-0.092
						l0.339-0.763c0.317,0.115,0.641,0.149,0.97,0.108c0.331-0.043,0.682-0.172,1.06-0.389c0.455-0.262,0.818-0.578,1.09-0.946
						c0.272-0.366,0.408-0.743,0.408-1.132c0-0.18-0.038-0.311-0.11-0.389c-0.072-0.079-0.178-0.121-0.319-0.129
						c-0.141-0.012-0.319,0.012-0.532,0.064c-0.214,0.054-0.463,0.124-0.745,0.214c-0.326,0.096-0.607,0.168-0.848,0.216
						c-0.237,0.047-0.435,0.057-0.591,0.031c-0.155-0.026-0.272-0.102-0.347-0.226c-0.077-0.124-0.115-0.314-0.115-0.573
						c0-0.321,0.056-0.638,0.169-0.951c0.111-0.313,0.263-0.604,0.456-0.876c0.191-0.272,0.414-0.524,0.673-0.756
						c0.257-0.229,0.53-0.429,0.82-0.596c0.435-0.25,0.828-0.398,1.183-0.442c0.355-0.043,0.64,0.003,0.859,0.142l-0.36,0.702
						c-0.209-0.128-0.465-0.164-0.764-0.115c-0.301,0.049-0.614,0.169-0.939,0.357c-0.196,0.113-0.378,0.239-0.543,0.38
						c-0.167,0.144-0.313,0.299-0.44,0.473c-0.126,0.172-0.226,0.355-0.298,0.548c-0.072,0.196-0.11,0.396-0.11,0.602
						c0,0.173,0.026,0.298,0.077,0.376c0.049,0.079,0.133,0.124,0.249,0.134c0.116,0.013,0.262-0.002,0.44-0.043
						c0.177-0.041,0.393-0.1,0.646-0.18c0.362-0.111,0.679-0.196,0.954-0.255c0.277-0.061,0.507-0.077,0.691-0.052
						c0.185,0.026,0.324,0.108,0.419,0.242c0.093,0.137,0.141,0.34,0.141,0.612c0,0.592-0.2,1.18-0.597,1.758
						C401.483,351.653,400.948,352.135,400.276,352.523z"/>
					<path style="fill:#F2F2F2;" d="M408.441,347.686l-0.74,0.426v-3.603c0-0.735-0.11-1.219-0.331-1.455
						c-0.221-0.236-0.545-0.231-0.972,0.016c-0.209,0.121-0.419,0.29-0.623,0.502c-0.208,0.214-0.401,0.455-0.581,0.725
						c-0.182,0.27-0.339,0.555-0.475,0.856c-0.132,0.299-0.232,0.6-0.296,0.902v3.95l-0.74,0.427v-9.039l0.74-0.427v4.05
						c0.223-0.617,0.535-1.181,0.933-1.692c0.398-0.51,0.828-0.897,1.291-1.165c0.326-0.188,0.601-0.28,0.826-0.275
						c0.224,0.01,0.408,0.092,0.553,0.252c0.146,0.159,0.25,0.393,0.316,0.697c0.065,0.304,0.098,0.664,0.098,1.077V347.686z"/>
				</g>
				<g>
					<path style="fill:#6B6CB3;" d="M365.39,375.78l-10.729,6.195c-0.421,0.243-0.763-0.015-0.763-0.577V369.37
						c0-0.562,0.341-1.214,0.763-1.457l10.729-6.194c0.421-0.243,0.763,0.015,0.763,0.577v12.028
						C366.152,374.885,365.811,375.537,365.39,375.78z"/>
					<path style="fill:#F2F2F2;" d="M366.153,362.221v1.4l-4.404,7.596l-1.133-0.646l5.173-8.922l0.002-0.001
						C366.009,361.691,366.153,361.895,366.153,362.221z"/>
					<path style="fill:#F2F2F2;" d="M360.215,370.83l-1.133,1.954l-5.185-2.956v-0.531c0-0.521,0.368-1.156,0.822-1.418l0.158-0.091
						L360.215,370.83z"/>
					<path style="fill:#F2F2F2;" d="M366.153,373.243v1.154c0,0.39-0.207,0.846-0.503,1.159l-4.11-2.343l1.133-1.954
						L366.153,373.243z"/>
					<path style="fill:#C8102E;" d="M366.153,362.221v0.212l-4.788,8.261l-0.458,0.789l-0.45,0.775l-0.457,0.79l-0.26,0.447
						l-0.451-0.257l-0.006-0.003l0.26-0.447l0.457-0.79l0.449-0.775l0.201-0.347l0.257-0.442l5.049-8.71
						C366.079,361.818,366.153,361.987,366.153,362.221z"/>
					<path style="fill:#C8102E;" d="M361.19,372.679l-0.457,0.788l-0.733-0.418l-0.451-0.257l-0.006-0.003l-5.645-3.218v-0.273
						c0-0.219,0.064-0.454,0.173-0.677l5.476,3.122l0.453,0.256l0.457,0.26L361.19,372.679z"/>
					<path style="fill:#C8102E;" d="M366.153,373.424v0.972c0,0.025-0.001,0.05-0.003,0.076l-5.244-2.99l-0.652-0.372l0.201-0.347
						l0.256-0.443L366.153,373.424z"/>
					<path style="fill:#F2F2F2;" d="M358.85,374.318l-4.484,7.734c-0.278,0.009-0.469-0.205-0.469-0.58v-1.212l3.82-6.589
						L358.85,374.318z"/>
					<path style="fill:#C8102E;" d="M360.656,370.879l-0.201,0.347l-0.45,0.775l-0.457,0.79l-0.26,0.447l-5.094,8.787
						c-0.179-0.068-0.293-0.257-0.296-0.54l5.192-8.956l0.457-0.788l0.652-1.125l0.256,0.148l0.195,0.111L360.656,370.879z"/>
					<polygon style="fill:#F2F2F2;" points="366.153,366.263 366.153,370.355 361.901,372.809 361.901,377.795 358.336,379.853 
						358.336,374.868 353.898,377.43 353.898,373.339 358.336,370.776 358.336,365.791 361.901,363.732 361.901,368.718 					"/>
					<polygon style="fill:#C8102E;" points="366.153,367.112 366.153,369.506 361.162,372.388 361.162,378.222 359.075,379.426 
						359.075,373.592 353.898,376.582 353.898,374.187 359.075,371.198 359.075,365.364 361.162,364.159 361.162,369.993 					"/>
				</g>
				<path style="fill:#595994;" d="M336.762,360.997l10.443,9.993l67.143-38.748l3.065-1.764l12.762-7.366l2.563-1.481
					c0-2.472-1.313-4.752-3.464-6.001l-6.979-4.018l-0.026,0.013l-3.052,1.764l-15.698,9.066l-3.065,1.764L336.762,360.997z"/>
				<path style="fill:#CED3DE;" d="M345.408,370.511v12.472l-1.785-1.027v-3.733c0-1.19,0.082-2.439-0.14-3.605
					c-0.233-1.237-0.922-2.345-1.762-3.243c-0.058-0.058-0.105-0.117-0.163-0.163c-2.625-2.684-6.125-4.34-9.346-6.184
					c-3.138-1.785-6.266-3.582-9.392-5.367c-3.36-1.925-6.72-3.85-10.081-5.764c-3.115-1.785-6.242-3.57-9.357-5.355
					c-2.415-1.388-4.842-2.765-7.257-4.154c-0.257-0.152-0.525-0.303-0.782-0.443v-5.635l45.958,26.812L345.408,370.511z"/>
				<path style="fill:#4D4D80;" d="M341.536,385.414l-4.775-2.758l-47.402-27.365v3.528l47.402,27.365l4.284,2.471
					c0.635,0.37,1.307,0.544,1.964,0.559c2.176,0.038,4.193-1.685,4.193-4.118v-14.106c0-2.478-1.315-4.76-3.46-5.999l-6.981-4.027
					V361l-47.402-27.365v3.528l47.402,27.365l4.284,2.47c0.14,0.082,0.282,0.15,0.424,0.212l0.566,0.327
					c1.617,0.929,2.607,2.652,2.607,4.51v11.567C344.641,385.21,342.919,386.207,341.536,385.414z"/>
				<polygon style="fill:#6B6CB3;" points="289.359,333.635 336.761,361 422.294,311.609 374.892,284.279 				"/>
			</g>
			<path style="fill:#FA8406;" d="M321.077,359.467c-0.226,0.125-0.427,0.301-0.627,0.476c-0.602,0.576-1.053,1.303-1.454,2.03
				c-0.125,0.251-0.275,0.527-0.376,0.802c-0.777,1.629-1.354,3.358-2.256,4.937c-1.328,2.256-3.408,4.086-5.814,5.113l0.42-3.518
				l-6.216,0.1c2.406-1.027,4.461-2.858,5.789-5.113c0.902-1.554,1.479-3.283,2.231-4.912c0.125-0.275,0.251-0.552,0.401-0.827
				c0.401-0.727,0.852-1.453,1.454-2.03c0.175-0.176,0.376-0.326,0.576-0.451L321.077,359.467z"/>
		</g>
		<g>
			<g>
				<polygon style="fill:#FF5740;" points="313.102,313.394 369.39,280.742 377.121,323.942 368.961,345.511 362.737,344.224 				
					"/>
				<polygon style="fill:#EFF0F2;" points="319.088,296.416 319.088,312.159 369.149,341.085 369.149,328.61 365.044,323.217 				
					"/>
				<polygon style="fill:#CED3DE;" points="319.088,306.162 364.473,332.342 319.088,307.839 				"/>
				<path style="fill:#DE2910;" d="M368.296,347.044l85.969-49.552l0.245-0.142c1.159-0.708,1.97-1.957,1.97-3.503v-14.114
					l-2.563,1.481l-12.761,7.366l-3.065,1.764l-67.142,38.748l-1.404,14.848L368.296,347.044z"/>
				<g>
					<path style="fill:#F2F2F2;" d="M411.482,309.755l-4.002,2.311v-1.304l0.552-0.319v-0.465l-0.552,0.319l-0.692,0.4v0.464v1.304
						l-4.002,2.31v-0.022l-0.692,0.4v0.022v0.794v3.606v0.794v1.183l0.692-0.4v-1.183l4.002-2.31v4.605l0.692-0.4v-4.605l4.002-2.31
						v1.183l0.692-0.4v-1.183v-0.794v-3.606v-0.794v-0.022l-0.692,0.4V309.755z M402.786,319.176v-3.606l4.002-2.311v3.606
						L402.786,319.176z M411.482,314.155l-4.002,2.311v-3.606l4.002-2.31V314.155z"/>
					<path style="fill:#F2F2F2;" d="M426.119,310.996c-2.142,0.471-4.123,0.281-5.794-0.481c1.292-2.227,2.375-4.562,3.172-6.903
						l1.398-0.807v-0.794l-4.521,2.61v-1.304l0.552-0.319v-0.464l-0.552,0.319l-0.692,0.4v0.464v1.304l-4.867,2.81v0.794
						l1.152-0.665c0.797,1.42,1.88,2.505,3.172,3.24c-1.671,2.691-3.651,5.168-5.794,7.171l0.247,0.767
						c2.273-2.126,4.372-4.758,6.14-7.617c1.768,0.817,3.867,1.026,6.14,0.527L426.119,310.996z M416.903,307.419l5.657-3.266
						c-0.737,2.051-1.695,4.09-2.828,6.041C418.598,309.552,417.64,308.619,416.903,307.419z"/>
				</g>
				<g>
					<path style="fill:#E6E6E6;" d="M388.931,334.009l-10.327,5.962c-0.405,0.234-0.734-0.014-0.734-0.555v-11.577
						c0-0.541,0.329-1.168,0.734-1.403l10.327-5.962c0.405-0.234,0.734,0.014,0.734,0.555v11.577
						C389.665,333.147,389.337,333.775,388.931,334.009z"/>
					<path style="fill:#DE2910;" d="M388.521,333.708l-9.507,5.489c-0.373,0.216-0.676-0.013-0.676-0.511v-10.658
						c0-0.498,0.303-1.076,0.676-1.291l9.507-5.489c0.373-0.215,0.676,0.013,0.676,0.511v10.658
						C389.197,332.914,388.894,333.492,388.521,333.708z"/>
					<polygon style="fill:#FFDE00;" points="380.867,330.055 379.796,331.319 380,329.832 379.134,329.363 380.331,328.472 
						380.867,326.918 381.403,327.854 382.6,327.362 381.734,328.832 381.938,330.082 					"/>
					<polygon style="fill:#FFDE00;" points="383.536,325.664 383.229,326.027 383.287,325.6 383.038,325.465 383.382,325.209 
						383.536,324.763 383.69,325.031 384.034,324.89 383.785,325.312 383.844,325.671 					"/>
					<polygon style="fill:#FFDE00;" points="383.536,330.171 383.229,330.534 383.287,330.107 383.038,329.972 383.382,329.716 
						383.536,329.27 383.69,329.539 384.034,329.397 383.785,329.819 383.844,330.178 					"/>
					<polygon style="fill:#FFDE00;" points="384.846,328.009 384.538,328.372 384.597,327.945 384.348,327.81 384.692,327.555 
						384.846,327.108 384.999,327.377 385.343,327.236 385.094,327.658 385.153,328.017 					"/>
					<polygon style="fill:#FFDE00;" points="384.846,326.256 384.538,326.619 384.597,326.192 384.348,326.057 384.692,325.802 
						384.846,325.355 384.999,325.624 385.343,325.483 385.094,325.905 385.153,326.264 					"/>
				</g>
				<path style="fill:#FF4126;" d="M360.505,319.1l10.444,9.993l67.142-38.748l3.065-1.764l12.761-7.366l2.563-1.481
					c0-2.472-1.314-4.752-3.464-6.001l-6.979-4.018l-0.026,0.013l-3.052,1.764l-15.698,9.066l-3.065,1.764L360.505,319.1z"/>
				<path style="fill:#CED3DE;" d="M369.15,328.613v12.472l-1.785-1.027v-3.733c0-1.19,0.082-2.439-0.14-3.605
					c-0.233-1.237-0.922-2.345-1.762-3.244c-0.058-0.058-0.105-0.117-0.163-0.163c-2.625-2.683-6.125-4.34-9.345-6.184
					c-3.139-1.785-6.266-3.582-9.392-5.367c-3.36-1.925-6.72-3.85-10.081-5.764c-3.115-1.785-6.242-3.57-9.357-5.355
					c-2.415-1.388-4.842-2.765-7.257-4.154c-0.257-0.152-0.525-0.303-0.782-0.443v-5.635l45.958,26.812L369.15,328.613z"/>
				<path style="fill:#ED341A;" d="M365.279,343.517l-4.775-2.758l-47.402-27.365v3.528l47.402,27.365l4.284,2.471
					c0.635,0.37,1.307,0.544,1.964,0.559c2.176,0.038,4.193-1.685,4.193-4.118v-14.106c0-2.478-1.315-4.76-3.46-5.999l-6.981-4.027
					v0.035l-47.402-27.365v3.528l47.402,27.365l4.284,2.471c0.14,0.081,0.282,0.15,0.424,0.212l0.566,0.326
					c1.617,0.929,2.607,2.652,2.607,4.51v11.567C368.384,343.313,366.661,344.31,365.279,343.517z"/>
				<polygon style="fill:#FF5740;" points="313.102,291.738 360.504,319.103 446.037,269.711 398.635,242.381 				"/>
			</g>
			<path style="fill:#B3B3B3;" d="M363.488,331.765c-0.226,0.125-0.427,0.301-0.627,0.476c-0.602,0.576-1.053,1.303-1.454,2.03
				c-0.125,0.251-0.275,0.527-0.376,0.802c-0.777,1.629-1.354,3.358-2.256,4.937c-1.328,2.256-3.409,4.086-5.814,5.113l0.42-3.518
				l-6.216,0.1c2.406-1.027,4.461-2.858,5.789-5.113c0.902-1.554,1.479-3.283,2.231-4.912c0.125-0.275,0.251-0.551,0.401-0.827
				c0.401-0.727,0.852-1.453,1.454-2.03c0.175-0.176,0.376-0.326,0.576-0.451L363.488,331.765z"/>
		</g>
	</g>
	<g>
		<path style="fill:#ED341A;" d="M375.691,306.681l-39.309-22.687c-1.218-0.703-1.065-1.931,0.341-2.743l27.277-15.815
			c1.406-0.812,3.534-0.9,4.752-0.197l39.309,22.687c1.218,0.703,1.065,1.931-0.341,2.743l-27.277,15.815
			C379.036,307.296,376.909,307.384,375.691,306.681z"/>
		<g>
			<g style="enable-background:new    ;">
				<g>
					<polygon style="fill:#FFEA00;" points="342.926,281.339 362.782,269.8 366.903,272.179 347.047,283.718 					"/>
				</g>
				<g>
					<polygon style="fill:#FFEA00;" points="359.425,290.865 379.282,279.326 382.275,281.054 362.418,292.593 					"/>
				</g>
				<g>
					<path style="fill:#FFEA00;" d="M386.442,281.734l-19.857,11.539c-0.966,0.561-2.317,0.388-4.167-0.681l19.857-11.539
						C384.125,282.122,385.476,282.295,386.442,281.734z"/>
				</g>
				<g>
					<polygon style="fill:#FF8C00;" points="359.495,266.438 379.351,254.898 379.282,279.326 359.425,290.865 					"/>
				</g>
				<g>
					<polygon style="fill:#FFEA00;" points="359.499,265.047 379.355,253.508 381.007,254.461 361.15,266.001 					"/>
				</g>
				<g>
					<path style="fill:#FFEA00;" d="M385.113,255.211l-19.857,11.539c-0.918,0.534-2.244,0.326-4.106-0.749l19.856-11.539
						C382.869,255.537,384.195,255.745,385.113,255.211z"/>
				</g>
				<g>
					<path style="fill:#FF8C00;" d="M398.763,286.758l-19.857,11.539c1.862-1.082,2.898-3.443,2.91-7.435
						c0.022-7.666-4.66-14.228-12.669-20.17l19.857-11.539c8.009,5.941,12.691,12.503,12.67,20.17
						C401.661,283.315,400.624,285.676,398.763,286.758z"/>
				</g>
				<g>
					<polygon style="fill:#FF8C00;" points="359.562,242.574 379.419,231.035 379.355,253.508 359.499,265.047 					"/>
				</g>
				<g>
					<polygon style="fill:#FFEA00;" points="343.066,231.657 362.923,220.118 381.908,231.079 362.052,242.619 					"/>
				</g>
				<g>
					<path style="fill:#FFD60A;" d="M396.931,259.706l-19.857,11.539c1.68-0.976,2.578-3.082,2.587-6.471
						c0.026-9.038-6.442-15.708-17.611-22.156l19.857-11.539c11.169,6.448,17.636,13.118,17.611,22.156
						C399.509,256.624,398.611,258.73,396.931,259.706z"/>
				</g>
				<path style="fill:#FFC400;" d="M369.146,270.693c6.676,2.612,10.496,1.091,10.516-5.918c0.026-9.038-6.442-15.708-17.611-22.156
					l-18.985-10.961l-0.004,1.391l4.121,2.379l-0.137,48.291l-4.121-2.379l-0.004,1.39l18.658,10.772
					c11.937,6.892,20.204,8.672,20.236-2.64C381.838,283.196,377.155,276.634,369.146,270.693z M359.562,242.574l2.044,1.18
					c4.432,2.559,5.503,5.887,5.483,12.896l-0.01,3.42c-0.017,5.975-1.351,8.574-5.93,5.931l-1.652-0.954L359.562,242.574z
					 M368.728,285.282c-0.019,6.708-1.421,10.134-6.31,7.311l-2.993-1.728l0.069-24.427l1.472,0.85
					c6.148,3.55,7.79,8.149,7.773,14.124L368.728,285.282z"/>
			</g>
		</g>
	</g>
	<g>
		<path style="fill:#E3ECFF;" d="M272.063,400.321l-16.312-9.424l3.753-2.167c2.732-1.577,3.029-3.964,0.663-5.33l-0.668-0.386
			c-2.366-1.366-6.5-1.195-9.232,0.383l-3.75,2.165l-18.723-10.816c-1.543-0.891-4.239-0.779-6.021,0.25l-49.608,28.636
			c-1.782,1.029-1.976,2.585-0.432,3.476l19.215,11.101l-9.042,5.22c-2.732,1.578-3.029,3.964-0.663,5.33l0.668,0.386
			c2.366,1.366,6.5,1.195,9.232-0.383l9.039-5.219l15.82,9.139c1.543,0.891,4.239,0.779,6.021-0.25l49.608-28.636
			C273.413,402.768,273.606,401.212,272.063,400.321z"/>
		<g>
			<g>
				<g style="enable-background:new    ;">
					<path style="fill:#B4BCCF;" d="M258.441,379.06c-0.766,0.578-1.714,1.005-2.749,1.295c-0.327,0.089-0.528,0.137-0.729,0.176
						l-0.705,0.171c-1.363,0.329-2.65,0.738-3.85,1.215c-1.208,0.481-1.837,1.246-1.84,2.018l-0.021,7.577
						c0.002-0.772,0.632-1.537,1.84-2.018c1.2-0.477,2.487-0.886,3.85-1.215l0.705-0.171c0.201-0.039,0.402-0.087,0.729-0.176
						c1.036-0.29,1.984-0.717,2.749-1.295c1.069-0.802,1.598-1.77,1.6-2.74l0.022-7.577
						C260.039,377.29,259.509,378.259,258.441,379.06z"/>
					<path style="fill:#ED341A;" d="M212.337,384.465c-0.807-0.466-1.74-0.809-2.739-1.026l-0.272-0.057
						c-0.118-0.023-0.233-0.048-0.347-0.068c-3.147-0.605-5.968-1.624-8.275-2.956c-0.268-0.155-0.4-0.355-0.399-0.555l-0.021,7.577
						c-0.001,0.2,0.131,0.4,0.399,0.555c2.307,1.332,5.128,2.351,8.275,2.956c0.114,0.021,0.229,0.046,0.347,0.068l0.272,0.057
						c0.999,0.217,1.932,0.56,2.739,1.026c1.544,0.891,2.316,2.062,2.312,3.229l0.021-7.577
						C214.653,386.527,213.881,385.357,212.337,384.465z"/>
					<g>
						<path style="fill:#ED341A;" d="M239.551,400.039l-0.013,7.576c-3.065-1.38-7.536-1.234-10.283,0.345
							c-1.008,0.571-1.698,1.26-2.03,2.003c-0.027,0.04-0.053,0.08-0.053,0.12c-0.159,0.358-0.239,0.73-0.239,1.088v-1.088
							l0.027-6.501c0-0.385,0.093-0.783,0.265-1.154c0.345-0.756,1.022-1.459,2.043-2.043
							C232.028,398.805,236.486,398.659,239.551,400.039z"/>
					</g>
					<path style="fill:#B4BCCF;" d="M227.225,402.427v7.656h-0.292l0.027-6.501C226.96,403.197,227.053,402.799,227.225,402.427z"/>
					<path style="fill:#3A3A61;" d="M263.991,395.169l-0.027,7.576c0,0.796-0.531,1.592-1.579,2.202l-2.654,1.539l-6.727,3.914
						l-3.251,1.897l-1.858,1.075l0.013-7.576l1.844-1.075l3.251-1.884l6.727-3.914l2.68-1.552
						C263.46,396.762,263.991,395.966,263.991,395.169z"/>
					<path style="fill:#B4BCCF;" d="M263.991,395.169l-0.027,7.576c0,0.332-0.093,0.65-0.279,0.969
						c-0.239,0.451-0.677,0.876-1.3,1.234l-2.654,1.539v-7.563l2.68-1.552c0.597-0.345,1.022-0.756,1.274-1.181
						C263.885,395.859,263.991,395.514,263.991,395.169z"/>
					<path style="fill:#ED341A;" d="M263.991,395.169l-0.027,7.576c0,0.332-0.093,0.65-0.279,0.969v-7.523
						C263.885,395.859,263.991,395.514,263.991,395.169z"/>
					<polygon style="fill:#ED341A;" points="249.754,404.723 249.754,412.298 247.897,413.373 247.91,405.797 					"/>
					<polygon style="fill:#B4BCCF;" points="253.005,402.838 253.005,410.401 249.754,412.298 249.754,404.723 					"/>
					<path style="fill:#ED341A;" d="M242.403,402.461l-0.298-0.409c-0.068-0.117-0.151-0.228-0.242-0.345
						c-0.44-0.519-0.935-0.933-1.568-1.298c-0.229-0.132-0.475-0.258-0.741-0.376l-0.022,7.577c0.266,0.118,0.512,0.244,0.741,0.376
						c0.633,0.365,1.128,0.78,1.568,1.298c0.091,0.117,0.175,0.229,0.242,0.345l0.298,0.409c0.87,1.208,2.064,2.321,3.589,3.341
						l0.021-7.577C244.467,404.782,243.274,403.67,242.403,402.461z"/>
					<g>
						<path style="fill:#ED341A;" d="M247.912,405.796l-0.021,7.577c-0.533,0.31-1.395,0.309-1.92,0.006l0.021-7.577
							C246.517,406.106,247.379,406.106,247.912,405.796z"/>
					</g>
					<path style="fill:#3A3A61;" d="M191.109,406.434l-0.013,7.576c0-0.624-0.411-1.247-1.247-1.738l-1.513-0.876l-10.734-6.196
						c-1.194-0.69-1.791-1.592-1.778-2.494l0.013-7.576c0,0.902,0.597,1.805,1.791,2.494l10.707,6.183l1.539,0.889
						C190.711,405.174,191.123,405.81,191.109,406.434z"/>
					<path style="fill:#B4BCCF;" d="M191.109,406.434l-0.013,7.576c0-0.624-0.411-1.247-1.247-1.738l-1.513-0.876v-7.589
						l1.539,0.889C190.711,405.174,191.123,405.81,191.109,406.434z"/>
					<path style="fill:#ED341A;" d="M203.13,412.352l-0.027,7.576c-0.849-0.491-1.937-0.716-3.025-0.716
						c-1.313,0.013-2.627,0.371-3.423,1.061c-0.743,0.637-1.393,1.314-1.911,2.03c-0.239,0.318-0.451,0.637-0.637,0.969
						c-0.04,0.066-0.08,0.133-0.106,0.199l-0.106,0.159l0.026-7.576l0.093-0.159c0.04-0.066,0.08-0.133,0.106-0.199
						c0.186-0.318,0.398-0.637,0.623-0.955c0.531-0.716,1.181-1.406,1.924-2.043c0.796-0.69,2.096-1.048,3.41-1.061
						C201.18,411.635,202.281,411.861,203.13,412.352z"/>
					<g>
						<path style="fill:#ED341A;" d="M193.922,416.053l-0.026,7.576c-0.372,0.571-0.955,1.115-1.765,1.579
							c-1.3,0.756-2.919,1.194-4.604,1.3c-2.295,0.159-4.684-0.279-6.448-1.3c-1.526-0.889-2.282-2.07-2.282-3.237l0.026-7.549
							c0,1.168,0.77,2.335,2.282,3.211c1.751,1.008,4.14,1.446,6.422,1.287c1.698-0.093,3.344-0.531,4.631-1.287
							C192.954,417.168,193.551,416.624,193.922,416.053z"/>
					</g>
					<path style="fill:#B4BCCF;" d="M194.745,414.74v7.563c-0.239,0.318-0.451,0.637-0.637,0.969
						c-0.04,0.066-0.08,0.133-0.106,0.199l-0.106,0.159c-0.372,0.571-0.955,1.115-1.765,1.579c-1.3,0.756-2.919,1.194-4.604,1.3
						v-7.589c1.698-0.093,3.344-0.531,4.631-1.287c0.796-0.464,1.393-1.008,1.765-1.579l0.093-0.159
						c0.04-0.066,0.08-0.133,0.106-0.199C194.307,415.377,194.519,415.058,194.745,414.74z"/>
					<path style="fill:#3A3A61;" d="M239.286,410.507l-0.027,7.576c0,0.186-0.133,0.385-0.385,0.531l-1.712,0.995l-7.828,4.551
						l-0.73,0.425l-2.799,1.619l-1.247,0.73l-0.385,0.226l0.013-7.576l0.372-0.212l1.247-0.73l2.799-1.619l0.73-0.425l7.828-4.551
						l1.738-1.008C239.153,410.892,239.286,410.693,239.286,410.507z"/>
					<polygon style="fill:#B4BCCF;" points="229.335,416.597 229.335,424.16 228.605,424.585 225.805,426.203 225.805,418.641 
						228.605,417.022 					"/>
					<polygon style="fill:#ED341A;" points="228.605,417.022 228.605,424.585 224.558,426.933 224.558,419.37 					"/>
					<path style="fill:#B4BCCF;" d="M239.286,410.507l-0.027,7.576c0,0.186-0.133,0.385-0.385,0.531l-1.712,0.995v-7.563
						l1.738-1.008C239.153,410.892,239.286,410.693,239.286,410.507z"/>
					<g>
						<polygon style="fill:#3A3A61;" points="215.695,419.609 215.629,427.159 204.298,420.618 203.104,419.928 203.13,412.352 
							204.298,413.028 						"/>
					</g>
					<path style="fill:#B4BCCF;" d="M204.298,413.028v7.589l-1.194-0.69c-0.849-0.491-1.937-0.716-3.025-0.716v-7.576
						c1.101,0,2.203,0.226,3.052,0.717L204.298,413.028z"/>
					<g>
						<path style="fill:#499FD2;" d="M239.554,400.033c-3.064-1.373-7.528-1.227-10.279,0.345c-3.094,1.766-3.093,4.658-0.011,6.437
							c0.803,0.464,1.74,0.804,2.739,1.026l0.276,0.055c0.115,0.025,0.233,0.048,0.347,0.069c2.235,0.429,4.309,1.071,6.147,1.887
							c0.653,0.368,0.665,0.87,0.129,1.181l-14.71,8.548c-2.351,1.366-6.176,1.366-8.542,0l-12.523-7.23
							c-1.867-1.078-4.982-0.918-6.454,0.345c-1.071,0.916-1.937,1.923-2.546,2.997c-0.031,0.064-0.074,0.13-0.109,0.196
							l-0.098,0.162c-0.375,0.576-0.964,1.119-1.762,1.583c-3.045,1.77-7.996,1.768-11.059,0c-2.773-1.624-3.036-4.212-0.688-5.98
							c0.77-0.58,1.722-1.005,2.761-1.298c0.327-0.089,0.524-0.135,0.725-0.178l0.705-0.171c1.768-0.423,3.41-0.982,4.897-1.659
							c1.994-0.902,2.17-2.613,0.37-3.653l-12.246-7.07c-2.366-1.366-2.378-3.582-0.028-4.948l14.246-8.279
							c0.511-0.297,1.331-0.311,1.869-0.032c0.305,0.157,0.603,0.319,0.892,0.486c1.949,1.125,3.519,2.472,4.599,3.964l0.294,0.407
							c0.072,0.119,0.155,0.231,0.246,0.347c0.44,0.519,0.935,0.933,1.568,1.298c0.229,0.132,0.475,0.258,0.741,0.376
							c3.064,1.373,7.528,1.227,10.279-0.345c3.094-1.766,3.089-4.656,0.007-6.435c-0.807-0.466-1.74-0.809-2.739-1.026
							l-0.272-0.057c-0.118-0.023-0.233-0.048-0.347-0.068c-3.147-0.605-5.968-1.624-8.275-2.956
							c-0.538-0.311-0.525-0.804-0.002-1.108l15.114-8.784c2.107-1.224,5.542-1.227,7.667,0l12.796,7.388
							c1.959,1.131,5.219,0.891,6.619-0.482c0.745-0.74,1.36-1.528,1.833-2.353c0.039-0.064,0.082-0.13,0.117-0.197l0.094-0.164
							c0.375-0.576,0.96-1.113,1.766-1.581c3.045-1.77,7.996-1.768,11.059,0c2.765,1.629,3.036,4.212,0.676,5.983
							c-0.766,0.578-1.714,1.005-2.749,1.295c-0.327,0.089-0.528,0.137-0.729,0.176l-0.705,0.171
							c-1.363,0.329-2.65,0.738-3.85,1.215c-2.18,0.868-2.477,2.664-0.598,3.749l12.578,7.262c2.125,1.227,2.132,3.216,0.025,4.441
							l-14.501,8.427c-0.533,0.31-1.395,0.309-1.92,0.006c-1.525-1.02-2.718-2.133-3.589-3.341l-0.298-0.409
							c-0.068-0.117-0.151-0.228-0.242-0.345c-0.44-0.519-0.935-0.933-1.568-1.298C240.066,400.277,239.82,400.151,239.554,400.033z
							"/>
					</g>
					<g>
						<path style="fill:#3A3A61;" d="M224.187,419.583l-0.013,7.576c-1.34,0.783-3.171,1.114-4.936,0.995
							c-1.314-0.08-2.601-0.411-3.609-0.995l0.027-7.576c1.008,0.571,2.269,0.915,3.582,0.995
							C221.002,420.697,222.833,420.366,224.187,419.583z"/>
					</g>
					<path style="fill:#B4BCCF;" d="M224.558,419.37v7.563l-0.385,0.226c-1.34,0.783-3.171,1.114-4.936,0.995v-7.576
						c1.765,0.119,3.596-0.212,4.949-0.995L224.558,419.37z"/>
				</g>
			</g>
			<g>
				<defs>
					<path id="SVGID_1_" d="M239.554,400.033c-3.064-1.373-7.528-1.227-10.279,0.345c-3.094,1.766-3.093,4.658-0.011,6.437
						c0.803,0.464,1.74,0.804,2.739,1.026l0.276,0.055c0.115,0.025,0.233,0.048,0.347,0.069c2.235,0.429,4.309,1.071,6.147,1.887
						c0.653,0.368,0.665,0.87,0.129,1.181l-14.71,8.548c-2.351,1.366-6.176,1.366-8.542,0l-12.523-7.23
						c-1.867-1.078-4.982-0.918-6.454,0.345c-1.071,0.916-1.937,1.923-2.546,2.997c-0.031,0.064-0.074,0.13-0.109,0.196
						l-0.098,0.162c-0.375,0.576-0.964,1.119-1.762,1.583c-3.045,1.77-7.996,1.768-11.059,0c-2.773-1.624-3.036-4.212-0.688-5.98
						c0.77-0.58,1.722-1.005,2.761-1.298c0.327-0.089,0.524-0.135,0.725-0.178l0.705-0.171c1.768-0.423,3.41-0.982,4.897-1.659
						c1.994-0.902,2.17-2.613,0.37-3.653l-12.246-7.07c-2.366-1.366-2.378-3.582-0.028-4.948l14.246-8.279
						c0.511-0.297,1.331-0.311,1.869-0.032c0.305,0.157,0.603,0.319,0.892,0.486c1.949,1.125,3.519,2.472,4.599,3.964l0.294,0.407
						c0.072,0.119,0.155,0.231,0.246,0.347c0.44,0.519,0.935,0.933,1.568,1.298c0.229,0.132,0.475,0.258,0.741,0.376
						c3.064,1.373,7.528,1.227,10.279-0.345c3.094-1.766,3.089-4.656,0.007-6.435c-0.807-0.466-1.74-0.809-2.739-1.026l-0.272-0.057
						c-0.118-0.023-0.233-0.048-0.347-0.068c-3.147-0.605-5.968-1.624-8.275-2.956c-0.538-0.311-0.525-0.804-0.002-1.108
						l15.114-8.784c2.107-1.224,5.542-1.227,7.667,0l12.796,7.388c1.959,1.131,5.219,0.891,6.619-0.482
						c0.745-0.74,1.36-1.528,1.833-2.353c0.039-0.064,0.082-0.13,0.117-0.197l0.094-0.164c0.375-0.576,0.96-1.113,1.766-1.581
						c3.045-1.77,7.996-1.768,11.059,0c2.765,1.629,3.036,4.212,0.676,5.983c-0.766,0.578-1.714,1.005-2.749,1.295
						c-0.327,0.089-0.528,0.137-0.729,0.176l-0.705,0.171c-1.363,0.329-2.65,0.738-3.85,1.215c-2.18,0.868-2.477,2.664-0.598,3.749
						l12.578,7.262c2.125,1.227,2.132,3.216,0.025,4.441l-14.501,8.427c-0.533,0.31-1.395,0.309-1.92,0.006
						c-1.525-1.02-2.718-2.133-3.589-3.341l-0.298-0.409c-0.068-0.117-0.151-0.228-0.242-0.345c-0.44-0.519-0.935-0.933-1.568-1.298
						C240.066,400.277,239.82,400.151,239.554,400.033z"/>
				</defs>
				<clipPath id="SVGID_00000089567701167619903370000011403532213541944961_">
					<use xlink:href="#SVGID_1_"  style="overflow:visible;"/>
				</clipPath>
				<g style="clip-path:url(#SVGID_00000089567701167619903370000011403532213541944961_);">
					<path style="fill:#4D4D80;" d="M217.807,423.155l-48.012-27.719c-1.885-1.088-1.648-2.989,0.528-4.246l46.613-26.912
						c2.176-1.257,5.469-1.393,7.354-0.305l48.012,27.72c1.885,1.088,1.649,2.989-0.528,4.246l-46.614,26.912
						C222.984,424.107,219.692,424.243,217.807,423.155z"/>
					<path style="fill:#F2F2F2;" d="M272.06,395.775l-5.425,3.132l-39.29-0.071l-0.032-5.835l46.151,0.083l0.007,0.004
						C273.792,394.033,273.322,395.046,272.06,395.775z"/>
					<path style="fill:#F2F2F2;" d="M225.414,392.026l-10.106-0.018l-0.145-26.706l2.058-1.188c2.019-1.166,5.304-1.16,7.335,0.013
						l0.708,0.409L225.414,392.026z"/>
					<path style="fill:#F2F2F2;" d="M229.348,420.434l-4.472,2.582c-1.513,0.873-3.741,1.09-5.617,0.645l-0.115-21.168l10.106,0.018
						L229.348,420.434z"/>
					<path style="fill:#FF5740;" d="M272.06,395.775l-0.822,0.475l-42.727-0.074l-4.083-0.011l-4.011-0.007l-4.083-0.004
						l-2.316-0.008l-0.013-2.323l0-0.03l2.316,0.008l4.083,0.004l4.011,0.007l1.794,0.003l2.289,0.008l45.049,0.078
						C273.458,394.585,272.967,395.25,272.06,395.775z"/>
					<path style="fill:#FF5740;" d="M220.43,399.939l-4.077-0.007l-0.02-3.778l-0.013-2.323l0-0.031l-0.158-29.075l1.059-0.611
						c0.848-0.49,1.902-0.77,3.01-0.844l0.153,28.207l0.019,2.327l0.013,2.354L220.43,399.939z"/>
					<path style="fill:#FF5740;" d="M228.644,420.84l-3.768,2.176c-0.099,0.057-0.197,0.106-0.303,0.159l-0.146-27.011l-0.018-3.359
						l1.794,0.003l2.289,0L228.644,420.84z"/>
					<path style="fill:#F2F2F2;" d="M208.844,394.54l-40.003-0.072c-0.659-1.056-0.256-2.274,1.197-3.113l4.695-2.711l34.079,0.062
						L208.844,394.54z"/>
					<path style="fill:#FF5740;" d="M226.209,393.844l-1.794-0.003l-4.011-0.007l-4.083-0.003l-2.316-0.008l-45.451-0.082
						c-0.136-0.846,0.34-1.709,1.432-2.355l46.322,0.084l4.077,0.007l5.818,0.01l0.001,1.322l0.005,1.005L226.209,393.844z"/>
					<polygon style="fill:#F2F2F2;" points="256.395,404.818 240.54,413.972 221.515,402.988 180.549,426.843 164.594,417.632 
						205.561,393.777 185.702,382.311 201.557,373.157 221.416,384.623 254.607,365.682 270.561,374.894 237.37,393.834 					"/>
					<polygon style="fill:#FF5740;" points="253.107,406.716 243.828,412.074 221.495,399.179 180.007,423.3 170.669,417.91 
						212.158,393.789 188.99,380.413 198.269,375.056 221.437,388.431 256.344,368.263 265.681,373.654 230.774,393.822 					"/>
				</g>
			</g>
		</g>
	</g>
	<g>
		<path style="fill:#E3ECFF;" d="M395.032,217.965l2.439-1.408c1.115-0.644,0.975-1.768-0.312-2.511l-56.347-32.532
			c-1.287-0.743-3.234-0.824-4.349-0.18l-2.439,1.408c-1.115,0.644-0.975,1.768,0.312,2.511l56.347,32.532
			C391.97,218.527,393.917,218.608,395.032,217.965z"/>
		<g>
			<g>
				<g style="enable-background:new    ;">
					<g>
						<path style="fill:#EFF0F2;" d="M333.239,90.238l4.586-2.659c0.903-0.525,2.154-0.45,3.538,0.349l-4.586,2.659
							C335.393,89.788,334.142,89.713,333.239,90.238z"/>
					</g>
					<g>
						<path style="fill:#EFF0F2;" d="M406.935,176.184l-4.586,2.659c0.893-0.519,1.447-1.62,1.451-3.184l4.586-2.659
							C408.382,174.564,407.828,175.666,406.935,176.184z"/>
					</g>
					<g>
						<polygon style="fill:#EFF0F2;" points="403.916,135.069 408.502,132.41 408.387,173 403.801,175.659 						"/>
					</g>
					<g>
						<polygon style="fill:#EFF0F2;" points="336.776,90.587 341.363,87.928 403.548,123.831 398.962,126.49 						"/>
					</g>
					<g>
						<path style="fill:#EFF0F2;" d="M398.962,126.49l4.586-2.659c2.74,1.582,4.962,5.421,4.953,8.579l-4.586,2.659
							C403.925,131.911,401.702,128.072,398.962,126.49z"/>
					</g>
					<g>
						<path style="fill:#CED3DE;" d="M398.962,126.49c2.74,1.582,4.962,5.421,4.953,8.579l-0.115,40.59
							c-0.009,3.148-2.246,4.423-4.986,2.841l-38.601-22.286l-22.059,12.613l0.05-25.32l-1.576-0.91
							c-2.749-1.587-4.962-5.431-4.953-8.579l0.115-40.59c0.009-3.159,2.237-4.428,4.986-2.841L398.962,126.49z"/>
					</g>
				</g>
			</g>
			<g>
				<path style="fill:#6B6CB3;" d="M357.338,139.117c0,1.894-1.338,2.657-2.989,1.704c-1.651-0.953-2.989-3.261-2.989-5.155
					c0-1.894,1.338-2.657,2.989-1.704C356,134.915,357.338,137.223,357.338,139.117z"/>
				<path style="fill:#6B6CB3;" d="M365.747,143.972c0,1.894-1.338,2.657-2.989,1.704c-1.651-0.953-2.989-3.261-2.989-5.155
					c0-1.894,1.338-2.657,2.989-1.704C364.409,139.77,365.747,142.078,365.747,143.972z"/>
				<path style="fill:#6B6CB3;" d="M374.156,148.827c0,1.894-1.338,2.657-2.989,1.704c-1.651-0.953-2.989-3.261-2.989-5.155
					c0-1.894,1.338-2.657,2.989-1.704C372.818,144.625,374.156,146.933,374.156,148.827z"/>
				<path style="fill:#6B6CB3;" d="M382.565,153.682c0,1.894-1.338,2.657-2.989,1.704c-1.651-0.953-2.989-3.261-2.989-5.155
					c0-1.894,1.338-2.657,2.989-1.704C381.227,149.48,382.565,151.788,382.565,153.682z"/>
			</g>
		</g>
	</g>
	<g>
		<g>
			<g style="enable-background:new    ;">
				<g>
					<path style="fill:#FFEA00;" d="M278.993,40.656l3.318-1.924c0.653-0.38,1.559-0.325,2.559,0.253l-3.318,1.924
						C280.551,40.331,279.646,40.277,278.993,40.656z"/>
				</g>
				<g>
					<path style="fill:#FF8C00;" d="M318.384,94.899l-3.318,1.924c0.646-0.375,1.047-1.172,1.05-2.304l3.318-1.924
						C319.431,93.727,319.03,94.524,318.384,94.899z"/>
				</g>
				<g>
					<polygon style="fill:#FF8C00;" points="316.199,65.153 319.517,63.229 319.434,92.595 316.116,94.519 					"/>
				</g>
				<g>
					<polygon style="fill:#FFEA00;" points="281.552,40.909 284.87,38.985 315.934,57.022 312.616,58.946 					"/>
				</g>
				<g>
					<path style="fill:#FFEA00;" d="M312.616,58.946l3.318-1.924c1.982,1.145,3.59,3.922,3.584,6.207l-3.318,1.924
						C316.206,62.868,314.598,60.09,312.616,58.946z"/>
				</g>
				<g>
					<path style="fill:#FFC400;" d="M312.616,58.946c1.982,1.145,3.59,3.922,3.584,6.207l-0.083,29.366
						c-0.007,2.278-1.625,3.2-3.607,2.056l-31.064-18.037c-1.989-1.148-3.59-3.929-3.584-6.207l0.083-29.366
						c0.007-2.285,1.618-3.204,3.607-2.056L312.616,58.946z"/>
				</g>
				<g>
					<path style="fill:#FFFFFF;" d="M312.335,70.258l-29.48-17.02c-0.51-0.295-0.924-1.085-0.924-1.765v-1.697
						c0-0.68,0.414-0.993,0.924-0.698l29.48,17.02c0.51,0.295,0.924,1.085,0.924,1.765v1.697
						C313.259,70.24,312.846,70.552,312.335,70.258z"/>
					<path style="fill:#FFFFFF;" d="M312.335,76.708l-29.48-17.02c-0.51-0.295-0.924-1.085-0.924-1.765v-1.697
						c0-0.68,0.414-0.993,0.924-0.698l29.48,17.02c0.51,0.295,0.924,1.085,0.924,1.765v1.697
						C313.259,76.69,312.846,77.003,312.335,76.708z"/>
					<path style="fill:#FFFFFF;" d="M312.335,83.159l-29.48-17.02c-0.51-0.295-0.924-1.085-0.924-1.765v-1.697
						c0-0.68,0.414-0.993,0.924-0.699l29.48,17.02c0.51,0.295,0.924,1.085,0.924,1.765v1.697
						C313.259,83.141,312.846,83.453,312.335,83.159z"/>
					<path style="fill:#FFFFFF;" d="M312.335,89.609l-29.48-17.02c-0.51-0.295-0.924-1.085-0.924-1.766v-1.697
						c0-0.681,0.414-0.993,0.924-0.699l29.48,17.02c0.51,0.295,0.924,1.085,0.924,1.765v1.697
						C313.259,89.591,312.846,89.904,312.335,89.609z"/>
				</g>
			</g>
		</g>
	</g>
</g>
</svg>
