<?xml version="1.0" encoding="UTF-8"?>
<!DOCTYPE svg PUBLIC "-//W3C//DTD SVG 1.1//EN" "http://www.w3.org/Graphics/SVG/1.1/DTD/svg11.dtd">
<svg xmlns="http://www.w3.org/2000/svg" version="1.1" width="512px" height="512px" style="shape-rendering:geometricPrecision; text-rendering:geometricPrecision; image-rendering:optimizeQuality; fill-rule:evenodd; clip-rule:evenodd" xmlns:xlink="http://www.w3.org/1999/xlink">
<g><path style="opacity:0.997" fill="#f5c115" d="M 207.5,39.5 C 207.815,53.2456 207.481,66.9123 206.5,80.5C 188.77,97.8205 167.436,107.987 142.5,111C 128.171,111.5 113.837,111.667 99.5,111.5C 87.5156,88.7686 84.3489,64.7686 90,39.5C 95.592,26.9064 105.092,19.0731 118.5,16C 142.5,15.3333 166.5,15.3333 190.5,16C 201.802,19.7961 207.468,27.6294 207.5,39.5 Z"/></g>
<g><path style="opacity:0.984" fill="#efa401" d="M 207.5,39.5 C 228.762,42.5942 241.928,54.5942 247,75.5C 247.667,81.8333 247.667,88.1667 247,94.5C 244.045,103.075 240.545,111.408 236.5,119.5C 236.167,119.5 235.833,119.5 235.5,119.5C 226.497,106.989 217.664,94.3228 209,81.5C 208.329,80.7476 207.496,80.4142 206.5,80.5C 207.481,66.9123 207.815,53.2456 207.5,39.5 Z"/></g>
<g><path style="opacity:0.997" fill="#fed2c3" d="M 206.5,80.5 C 207.496,80.4142 208.329,80.7476 209,81.5C 217.664,94.3228 226.497,106.989 235.5,119.5C 235.755,135.524 235.422,151.524 234.5,167.5C 231.491,185.794 222.491,200.127 207.5,210.5C 180.812,227.831 154.146,227.831 127.5,210.5C 112.509,200.127 103.509,185.794 100.5,167.5C 99.5453,151.535 99.2119,135.535 99.5,119.5C 99.5,116.833 99.5,114.167 99.5,111.5C 113.837,111.667 128.171,111.5 142.5,111C 167.436,107.987 188.77,97.8205 206.5,80.5 Z"/></g>
<g><path style="opacity:0.964" fill="#f0fefe" d="M 407.5,107.5 C 374.948,113.872 352.448,132.539 340,163.5C 335.794,178.896 334.461,194.563 336,210.5C 337.025,212.687 338.525,214.354 340.5,215.5C 334.824,215.666 329.157,215.499 323.5,215C 312.872,174.916 324.872,142.916 359.5,119C 374.293,110.135 390.293,106.302 407.5,107.5 Z"/></g>
<g><path style="opacity:1" fill="#def5f5" d="M 407.5,107.5 C 442.605,110.134 467.438,127.468 482,159.5C 484.449,165.63 486.116,171.963 487,178.5C 487.5,204.165 487.667,229.831 487.5,255.5C 479.5,255.5 471.5,255.5 463.5,255.5C 463.667,237.164 463.5,218.83 463,200.5C 459.677,177.691 447.51,161.525 426.5,152C 423.28,150.648 419.947,149.814 416.5,149.5C 390.401,144.629 372.235,154.296 362,178.5C 360.369,190.174 359.036,201.84 358,213.5C 357.25,214.126 356.416,214.626 355.5,215C 350.511,215.499 345.511,215.666 340.5,215.5C 338.525,214.354 337.025,212.687 336,210.5C 334.461,194.563 335.794,178.896 340,163.5C 352.448,132.539 374.948,113.872 407.5,107.5 Z"/></g>
<g><path style="opacity:0.988" fill="#fcc7b5" d="M 99.5,119.5 C 99.2119,135.535 99.5453,151.535 100.5,167.5C 86.4422,170.438 75.9422,165.772 69,153.5C 64.0749,137.523 69.2416,126.356 84.5,120C 89.4889,119.501 94.4889,119.334 99.5,119.5 Z"/></g>
<g><path style="opacity:0.988" fill="#fcc7b5" d="M 235.5,119.5 C 235.833,119.5 236.167,119.5 236.5,119.5C 255.103,117.124 265.436,125.124 267.5,143.5C 267.463,155.375 261.796,163.208 250.5,167C 245.177,167.499 239.844,167.666 234.5,167.5C 235.422,151.524 235.755,135.524 235.5,119.5 Z"/></g>
<g><path style="opacity:0.982" fill="#effefe" d="M 416.5,149.5 C 419.947,149.814 423.28,150.648 426.5,152C 447.51,161.525 459.677,177.691 463,200.5C 463.5,218.83 463.667,237.164 463.5,255.5C 458.167,255.5 452.833,255.5 447.5,255.5C 447.667,234.164 447.5,212.831 447,191.5C 445.426,171.115 435.26,157.115 416.5,149.5 Z"/></g>
<g><path style="opacity:1" fill="#fbc7b5" d="M 127.5,210.5 C 154.146,227.831 180.812,227.831 207.5,210.5C 207.5,220.167 207.5,229.833 207.5,239.5C 194.517,250.32 181.184,260.653 167.5,270.5C 153.816,260.653 140.483,250.32 127.5,239.5C 127.5,229.833 127.5,220.167 127.5,210.5 Z"/></g>
<g><path style="opacity:0.992" fill="#effefe" d="M 127.5,239.5 C 140.483,250.32 153.816,260.653 167.5,270.5C 181.184,260.653 194.517,250.32 207.5,239.5C 217.174,244.667 226.508,250.334 235.5,256.5C 231.731,266.495 227.398,276.162 222.5,285.5C 211.167,282.5 199.833,279.5 188.5,276.5C 181.406,274.602 174.239,272.935 167,271.5C 159.836,272.827 153.002,274.827 146.5,277.5C 134.919,280.312 123.253,282.646 111.5,284.5C 109.5,280.167 107.5,275.833 105.5,271.5C 103.5,266.5 101.5,261.5 99.5,256.5C 108.492,250.334 117.826,244.667 127.5,239.5 Z"/></g>
<g><path style="opacity:0.998" fill="#e34e91" d="M 447.5,255.5 C 452.833,255.5 458.167,255.5 463.5,255.5C 471.5,255.5 479.5,255.5 487.5,255.5C 491.514,255.334 495.514,255.501 499.5,256C 500.416,256.374 501.25,256.874 502,257.5C 503.416,263.715 503.916,270.048 503.5,276.5C 502.254,274.099 500.254,272.599 497.5,272C 442.5,271.333 387.5,271.333 332.5,272C 330.333,272.833 328.833,274.333 328,276.5C 327.5,295.164 327.333,313.83 327.5,332.5C 319.584,330.917 311.584,329.917 303.5,329.5C 303.5,313.833 303.5,298.167 303.5,282.5C 303.334,274.826 303.5,267.159 304,259.5C 304.5,257.667 305.667,256.5 307.5,256C 354.165,255.5 400.832,255.333 447.5,255.5 Z"/></g>
<g><path style="opacity:0.995" fill="#253983" d="M 99.5,256.5 C 101.5,261.5 103.5,266.5 105.5,271.5C 89.7898,275.125 74.7898,280.625 60.5,288C 44.2642,299.293 34.7642,314.793 32,334.5C 31.3333,359.833 31.3333,385.167 32,410.5C 33.025,412.687 34.525,414.354 36.5,415.5C 28.16,415.666 19.8267,415.5 11.5,415C 9.66667,414.5 8.5,413.333 8,411.5C 7.33333,381.833 7.33333,352.167 8,322.5C 12.6918,299.814 25.5252,283.648 46.5,274C 64.1532,268.06 81.8199,262.227 99.5,256.5 Z"/></g>
<g><path style="opacity:1" fill="#1b2e69" d="M 235.5,256.5 C 253.18,262.227 270.847,268.06 288.5,274C 293.852,276.339 298.852,279.172 303.5,282.5C 303.5,298.167 303.5,313.833 303.5,329.5C 259.404,332.306 231.238,354.972 219,397.5C 217.838,403.445 217.338,409.445 217.5,415.5C 157.167,415.5 96.8333,415.5 36.5,415.5C 34.525,414.354 33.025,412.687 32,410.5C 31.3333,385.167 31.3333,359.833 32,334.5C 34.7642,314.793 44.2642,299.293 60.5,288C 74.7898,280.625 89.7898,275.125 105.5,271.5C 107.5,275.833 109.5,280.167 111.5,284.5C 122.323,310.32 133.323,335.987 144.5,361.5C 151.585,379.424 159.252,397.091 167.5,414.5C 176.085,396.077 184.085,377.411 191.5,358.5C 202.07,334.35 212.403,310.017 222.5,285.5C 227.398,276.162 231.731,266.495 235.5,256.5 Z"/></g>
<g><path style="opacity:1" fill="#db286e" d="M 503.5,276.5 C 503.99,322.251 503.49,367.918 502,413.5C 501.25,414.126 500.416,414.626 499.5,415C 462.835,415.5 426.168,415.667 389.5,415.5C 389.732,397.197 384.398,380.864 373.5,366.5C 362.163,349.825 346.83,338.491 327.5,332.5C 327.333,313.83 327.5,295.164 328,276.5C 328.833,274.333 330.333,272.833 332.5,272C 387.5,271.333 442.5,271.333 497.5,272C 500.254,272.599 502.254,274.099 503.5,276.5 Z"/></g>
<g><path style="opacity:1" fill="#4fdcbe" d="M 188.5,276.5 C 186.74,288.15 185.074,299.817 183.5,311.5C 172.833,311.5 162.167,311.5 151.5,311.5C 150.018,300.128 148.352,288.794 146.5,277.5C 153.002,274.827 159.836,272.827 167,271.5C 174.239,272.935 181.406,274.602 188.5,276.5 Z"/></g>
<g><path style="opacity:1" fill="#dcf3f3" d="M 146.5,277.5 C 148.352,288.794 150.018,300.128 151.5,311.5C 148.39,328.052 146.057,344.719 144.5,361.5C 133.323,335.987 122.323,310.32 111.5,284.5C 123.253,282.646 134.919,280.312 146.5,277.5 Z"/></g>
<g><path style="opacity:1" fill="#dcf3f4" d="M 188.5,276.5 C 199.833,279.5 211.167,282.5 222.5,285.5C 212.403,310.017 202.07,334.35 191.5,358.5C 188.744,342.967 186.077,327.301 183.5,311.5C 185.074,299.817 186.74,288.15 188.5,276.5 Z"/></g>
<g><path style="opacity:1" fill="#3ec7aa" d="M 151.5,311.5 C 162.167,311.5 172.833,311.5 183.5,311.5C 186.077,327.301 188.744,342.967 191.5,358.5C 184.085,377.411 176.085,396.077 167.5,414.5C 159.252,397.091 151.585,379.424 144.5,361.5C 146.057,344.719 148.39,328.052 151.5,311.5 Z"/></g>
<g><path style="opacity:0.995" fill="#4ddabd" d="M 303.5,329.5 C 311.584,329.917 319.584,330.917 327.5,332.5C 346.83,338.491 362.163,349.825 373.5,366.5C 337.879,347.259 303.879,349.759 271.5,374C 245.877,397.538 236.71,426.371 244,460.5C 246.773,469.997 250.607,478.997 255.5,487.5C 230.316,470.265 217.65,446.265 217.5,415.5C 217.338,409.445 217.838,403.445 219,397.5C 231.238,354.972 259.404,332.306 303.5,329.5 Z"/></g>
<g><path style="opacity:1" fill="#3cc8aa" d="M 373.5,366.5 C 384.398,380.864 389.732,397.197 389.5,415.5C 388.896,448.578 374.563,473.745 346.5,491C 322.212,503.024 297.212,504.691 271.5,496C 265.695,493.933 260.362,491.099 255.5,487.5C 250.607,478.997 246.773,469.997 244,460.5C 236.71,426.371 245.877,397.538 271.5,374C 303.879,349.759 337.879,347.259 373.5,366.5 Z"/></g>
<g><path style="opacity:1" fill="#edfefd" d="M 342.5,383.5 C 345.731,385.22 348.564,387.553 351,390.5C 351.667,391.167 351.667,391.833 351,392.5C 330.805,413.029 310.305,433.195 289.5,453C 287.365,453.635 285.365,453.301 283.5,452C 273.986,442.653 264.652,433.153 255.5,423.5C 257.833,420.5 260.5,417.833 263.5,415.5C 271.5,423.167 279.5,430.833 287.5,438.5C 306.188,420.479 324.521,402.146 342.5,383.5 Z"/></g>
</svg>
